<svg xmlns="http://www.w3.org/2000/svg" xmlns:xlink="http://www.w3.org/1999/xlink" width="200" zoomAndPan="magnify" viewBox="0 0 150 149.999998" height="200" preserveAspectRatio="xMidYMid meet" version="1.0"><defs><clipPath id="22419473ae"><path d="M 0.699219 0.792969 L 149.199219 0.792969 L 149.199219 149.292969 L 0.699219 149.292969 Z M 0.699219 0.792969 " clip-rule="nonzero"/></clipPath><clipPath id="35935d34dd"><path d="M 49.851562 66 L 100 66 L 100 108.730469 L 49.851562 108.730469 Z M 49.851562 66 " clip-rule="nonzero"/></clipPath></defs><path fill="#737373" d="M 98.035156 53.980469 L 93.617188 53.980469 L 93.617188 51.207031 C 92.832031 51.875 92.332031 52.867188 92.332031 53.980469 C 92.332031 55.988281 93.960938 57.621094 95.972656 57.621094 C 97.984375 57.621094 99.613281 55.988281 99.613281 53.980469 C 99.613281 52.738281 98.984375 51.640625 98.035156 50.980469 L 98.035156 53.980469 " fill-opacity="1" fill-rule="nonzero"/><path fill="#737373" d="M 93.617188 43.011719 C 93.617188 32.617188 85.160156 24.160156 74.765625 24.160156 C 64.371094 24.160156 55.914062 32.617188 55.914062 43.011719 L 55.914062 45.832031 L 93.617188 45.832031 L 93.617188 43.011719 " fill-opacity="1" fill-rule="nonzero"/><path fill="#737373" d="M 55.914062 51.207031 L 55.914062 53.980469 L 51.496094 53.980469 L 51.496094 50.980469 C 50.542969 51.640625 49.917969 52.738281 49.917969 53.980469 C 49.917969 55.988281 51.546875 57.621094 53.558594 57.621094 C 55.570312 57.621094 57.199219 55.988281 57.199219 53.980469 C 57.199219 52.867188 56.699219 51.875 55.914062 51.207031 " fill-opacity="1" fill-rule="nonzero"/><g clip-path="url(#22419473ae)"><path fill="#737373" d="M 110.308594 123.335938 L 39.222656 123.335938 L 39.222656 45.832031 L 51.496094 45.832031 L 51.496094 43.011719 C 51.496094 30.179688 61.933594 19.742188 74.765625 19.742188 C 87.597656 19.742188 98.035156 30.179688 98.035156 43.011719 L 98.035156 45.832031 L 110.308594 45.832031 Z M 74.996094 0.789062 C 34.011719 0.789062 0.792969 34.015625 0.792969 74.992188 C 0.792969 115.976562 34.011719 149.195312 74.996094 149.195312 C 115.976562 149.195312 149.199219 115.976562 149.199219 74.992188 C 149.199219 34.015625 115.976562 0.789062 74.996094 0.789062 " fill-opacity="1" fill-rule="nonzero"/></g><g clip-path="url(#35935d34dd)"><path fill="#737373" d="M 99.761719 76.90625 C 99.695312 75.726562 100.128906 74.402344 99.34375 73.375 C 97.96875 72.996094 96.59375 72.613281 95.214844 72.273438 C 95.140625 70.5625 95.277344 68.847656 95.152344 67.144531 C 94.953125 65.980469 93.535156 66.382812 92.714844 66.375 C 85.59375 66.730469 79.03125 70.761719 74.84375 76.425781 C 70.339844 70.289062 62.957031 66.058594 55.226562 66.375 C 55.074219 66.503906 54.761719 66.765625 54.605469 66.898438 C 54.367188 68.671875 54.589844 70.480469 54.496094 72.269531 C 52.929688 72.898438 50.613281 72.800781 49.871094 74.605469 C 50.164062 75.320312 50.230469 76.089844 50.199219 76.859375 C 50.132812 85.910156 50.261719 94.957031 50.136719 104.007812 C 50.019531 104.6875 50.144531 105.894531 51.125 105.679688 C 54.289062 104.53125 57.695312 104.117188 61.050781 104.308594 C 65.613281 104.664062 70.351562 105.734375 74.101562 108.46875 C 74.46875 108.46875 75.195312 108.46875 75.554688 108.476562 C 77.632812 106.882812 80.148438 106.015625 82.636719 105.296875 C 87.964844 103.804688 93.71875 103.945312 98.957031 105.734375 C 100.078125 105.546875 99.773438 104.320312 99.785156 103.503906 C 99.734375 94.644531 99.777344 85.773438 99.761719 76.90625 Z M 52.105469 103.230469 C 52.132812 93.882812 52.101562 84.535156 52.117188 75.1875 C 52.917969 74.902344 53.71875 74.621094 54.523438 74.339844 C 54.503906 81.804688 54.507812 89.269531 54.519531 96.730469 C 54.414062 98.089844 56.113281 97.851562 56.996094 97.9375 C 62.277344 98.15625 67.082031 100.84375 70.917969 104.332031 C 64.996094 101.941406 58.253906 101.398438 52.105469 103.230469 Z M 77.878906 104.808594 C 80.808594 101.945312 84.183594 99.371094 88.195312 98.265625 C 90.265625 97.566406 92.453125 97.5 94.601562 97.296875 C 95.292969 97.210938 95.152344 96.34375 95.199219 95.855469 C 95.195312 88.71875 95.191406 81.578125 95.195312 74.4375 C 96.058594 74.699219 96.917969 74.960938 97.785156 75.214844 C 97.90625 84.5625 97.789062 93.910156 97.84375 103.257812 C 91.277344 101.4375 84.109375 102.089844 77.878906 104.808594 Z M 77.878906 104.808594 " fill-opacity="1" fill-rule="nonzero"/></g></svg>