<svg xmlns="http://www.w3.org/2000/svg" xmlns:xlink="http://www.w3.org/1999/xlink" width="720" zoomAndPan="magnify" viewBox="0 0 540 809.999993" height="1080" preserveAspectRatio="xMidYMid meet" version="1.0"><defs><radialGradient gradientTransform="matrix(1, 0, 0, 1, 0.00000233333, 0.00002)" gradientUnits="userSpaceOnUse" r="486.749403" cx="269.999998" id="a781bc2edd" cy="404.999997" fx="269.999998" fy="404.999997"><stop stop-opacity="1" stop-color="rgb(78.825378%, 100%, 99.893188%)" offset="0"/><stop stop-opacity="1" stop-color="rgb(78.890991%, 100%, 99.629211%)" offset="0.0078125"/><stop stop-opacity="1" stop-color="rgb(78.968811%, 100%, 99.310303%)" offset="0.0195312"/><stop stop-opacity="1" stop-color="rgb(79.048157%, 100%, 98.99292%)" offset="0.03125"/><stop stop-opacity="1" stop-color="rgb(79.125977%, 100%, 98.675537%)" offset="0.0429688"/><stop stop-opacity="1" stop-color="rgb(79.203796%, 100%, 98.358154%)" offset="0.0546875"/><stop stop-opacity="1" stop-color="rgb(79.283142%, 100%, 98.040771%)" offset="0.0664062"/><stop stop-opacity="1" stop-color="rgb(79.360962%, 100%, 97.723389%)" offset="0.078125"/><stop stop-opacity="1" stop-color="rgb(79.440308%, 100%, 97.406006%)" offset="0.0898438"/><stop stop-opacity="1" stop-color="rgb(79.518127%, 100%, 97.088623%)" offset="0.101562"/><stop stop-opacity="1" stop-color="rgb(79.597473%, 100%, 96.769714%)" offset="0.113281"/><stop stop-opacity="1" stop-color="rgb(79.675293%, 100%, 96.452332%)" offset="0.125"/><stop stop-opacity="1" stop-color="rgb(79.754639%, 100%, 96.134949%)" offset="0.136719"/><stop stop-opacity="1" stop-color="rgb(79.832458%, 100%, 95.817566%)" offset="0.148438"/><stop stop-opacity="1" stop-color="rgb(79.911804%, 100%, 95.500183%)" offset="0.160156"/><stop stop-opacity="1" stop-color="rgb(79.989624%, 100%, 95.1828%)" offset="0.171875"/><stop stop-opacity="1" stop-color="rgb(80.067444%, 100%, 94.865417%)" offset="0.183594"/><stop stop-opacity="1" stop-color="rgb(80.14679%, 100%, 94.548035%)" offset="0.195312"/><stop stop-opacity="1" stop-color="rgb(80.224609%, 100%, 94.229126%)" offset="0.207031"/><stop stop-opacity="1" stop-color="rgb(80.303955%, 100%, 93.911743%)" offset="0.21875"/><stop stop-opacity="1" stop-color="rgb(80.381775%, 100%, 93.59436%)" offset="0.230469"/><stop stop-opacity="1" stop-color="rgb(80.461121%, 100%, 93.276978%)" offset="0.242188"/><stop stop-opacity="1" stop-color="rgb(80.526733%, 100%, 93.011475%)" offset="0.253906"/><stop stop-opacity="1" stop-color="rgb(80.578613%, 100%, 92.800903%)" offset="0.261719"/><stop stop-opacity="1" stop-color="rgb(80.630493%, 100%, 92.588806%)" offset="0.269531"/><stop stop-opacity="1" stop-color="rgb(80.683899%, 100%, 92.376709%)" offset="0.277344"/><stop stop-opacity="1" stop-color="rgb(80.735779%, 100%, 92.164612%)" offset="0.285156"/><stop stop-opacity="1" stop-color="rgb(80.787659%, 100%, 91.954041%)" offset="0.292969"/><stop stop-opacity="1" stop-color="rgb(80.841064%, 100%, 91.741943%)" offset="0.300781"/><stop stop-opacity="1" stop-color="rgb(80.892944%, 100%, 91.529846%)" offset="0.308594"/><stop stop-opacity="1" stop-color="rgb(80.944824%, 100%, 91.317749%)" offset="0.316406"/><stop stop-opacity="1" stop-color="rgb(80.996704%, 100%, 91.107178%)" offset="0.324219"/><stop stop-opacity="1" stop-color="rgb(81.05011%, 100%, 90.895081%)" offset="0.332031"/><stop stop-opacity="1" stop-color="rgb(81.10199%, 100%, 90.682983%)" offset="0.339844"/><stop stop-opacity="1" stop-color="rgb(81.15387%, 100%, 90.470886%)" offset="0.347656"/><stop stop-opacity="1" stop-color="rgb(81.207275%, 100%, 90.260315%)" offset="0.355469"/><stop stop-opacity="1" stop-color="rgb(81.259155%, 100%, 90.048218%)" offset="0.363281"/><stop stop-opacity="1" stop-color="rgb(81.311035%, 100%, 89.836121%)" offset="0.371094"/><stop stop-opacity="1" stop-color="rgb(81.364441%, 100%, 89.624023%)" offset="0.378906"/><stop stop-opacity="1" stop-color="rgb(81.416321%, 100%, 89.413452%)" offset="0.386719"/><stop stop-opacity="1" stop-color="rgb(81.468201%, 100%, 89.201355%)" offset="0.394531"/><stop stop-opacity="1" stop-color="rgb(81.521606%, 100%, 88.989258%)" offset="0.402344"/><stop stop-opacity="1" stop-color="rgb(81.573486%, 100%, 88.777161%)" offset="0.410156"/><stop stop-opacity="1" stop-color="rgb(81.625366%, 100%, 88.566589%)" offset="0.417969"/><stop stop-opacity="1" stop-color="rgb(81.677246%, 100%, 88.354492%)" offset="0.425781"/><stop stop-opacity="1" stop-color="rgb(81.730652%, 100%, 88.142395%)" offset="0.433594"/><stop stop-opacity="1" stop-color="rgb(81.782532%, 100%, 87.930298%)" offset="0.441406"/><stop stop-opacity="1" stop-color="rgb(81.834412%, 100%, 87.719727%)" offset="0.449219"/><stop stop-opacity="1" stop-color="rgb(81.887817%, 100%, 87.507629%)" offset="0.457031"/><stop stop-opacity="1" stop-color="rgb(81.939697%, 100%, 87.295532%)" offset="0.464844"/><stop stop-opacity="1" stop-color="rgb(81.991577%, 100%, 87.083435%)" offset="0.472656"/><stop stop-opacity="1" stop-color="rgb(82.044983%, 100%, 86.872864%)" offset="0.480469"/><stop stop-opacity="1" stop-color="rgb(82.096863%, 100%, 86.660767%)" offset="0.488281"/><stop stop-opacity="1" stop-color="rgb(82.148743%, 100%, 86.448669%)" offset="0.496094"/><stop stop-opacity="1" stop-color="rgb(82.214355%, 100%, 86.184692%)" offset="0.503906"/><stop stop-opacity="1" stop-color="rgb(82.292175%, 100%, 85.86731%)" offset="0.515625"/><stop stop-opacity="1" stop-color="rgb(82.371521%, 100%, 85.549927%)" offset="0.527344"/><stop stop-opacity="1" stop-color="rgb(82.449341%, 100%, 85.231018%)" offset="0.539062"/><stop stop-opacity="1" stop-color="rgb(82.528687%, 100%, 84.913635%)" offset="0.550781"/><stop stop-opacity="1" stop-color="rgb(82.606506%, 100%, 84.596252%)" offset="0.5625"/><stop stop-opacity="1" stop-color="rgb(82.685852%, 100%, 84.27887%)" offset="0.574219"/><stop stop-opacity="1" stop-color="rgb(82.763672%, 100%, 83.961487%)" offset="0.585938"/><stop stop-opacity="1" stop-color="rgb(82.843018%, 100%, 83.644104%)" offset="0.597656"/><stop stop-opacity="1" stop-color="rgb(82.920837%, 100%, 83.326721%)" offset="0.609375"/><stop stop-opacity="1" stop-color="rgb(82.998657%, 100%, 83.009338%)" offset="0.621094"/><stop stop-opacity="1" stop-color="rgb(83.06427%, 100%, 82.743835%)" offset="0.632812"/><stop stop-opacity="1" stop-color="rgb(83.117676%, 100%, 82.531738%)" offset="0.640625"/><stop stop-opacity="1" stop-color="rgb(83.169556%, 100%, 82.319641%)" offset="0.648438"/><stop stop-opacity="1" stop-color="rgb(83.221436%, 100%, 82.10907%)" offset="0.65625"/><stop stop-opacity="1" stop-color="rgb(83.274841%, 100%, 81.896973%)" offset="0.664062"/><stop stop-opacity="1" stop-color="rgb(83.326721%, 100%, 81.684875%)" offset="0.671875"/><stop stop-opacity="1" stop-color="rgb(83.378601%, 100%, 81.472778%)" offset="0.679688"/><stop stop-opacity="1" stop-color="rgb(83.432007%, 100%, 81.262207%)" offset="0.6875"/><stop stop-opacity="1" stop-color="rgb(83.483887%, 100%, 81.05011%)" offset="0.695312"/><stop stop-opacity="1" stop-color="rgb(83.535767%, 100%, 80.838013%)" offset="0.703125"/><stop stop-opacity="1" stop-color="rgb(83.589172%, 100%, 80.625916%)" offset="0.710938"/><stop stop-opacity="1" stop-color="rgb(83.641052%, 100%, 80.415344%)" offset="0.71875"/><stop stop-opacity="1" stop-color="rgb(83.692932%, 100%, 80.203247%)" offset="0.726562"/><stop stop-opacity="1" stop-color="rgb(83.744812%, 100%, 79.99115%)" offset="0.734375"/><stop stop-opacity="1" stop-color="rgb(83.798218%, 100%, 79.779053%)" offset="0.742188"/><stop stop-opacity="1" stop-color="rgb(83.850098%, 100%, 79.568481%)" offset="0.75"/><stop stop-opacity="1" stop-color="rgb(83.91571%, 100%, 79.302979%)" offset="0.757812"/><stop stop-opacity="1" stop-color="rgb(83.99353%, 100%, 78.985596%)" offset="0.769531"/><stop stop-opacity="1" stop-color="rgb(84.072876%, 100%, 78.668213%)" offset="0.78125"/><stop stop-opacity="1" stop-color="rgb(84.150696%, 100%, 78.35083%)" offset="0.792969"/><stop stop-opacity="1" stop-color="rgb(84.230042%, 100%, 78.033447%)" offset="0.804688"/><stop stop-opacity="1" stop-color="rgb(84.295654%, 100%, 77.767944%)" offset="0.816406"/><stop stop-opacity="1" stop-color="rgb(84.347534%, 100%, 77.555847%)" offset="0.824219"/><stop stop-opacity="1" stop-color="rgb(84.399414%, 100%, 77.345276%)" offset="0.832031"/><stop stop-opacity="1" stop-color="rgb(84.45282%, 100%, 77.133179%)" offset="0.839844"/><stop stop-opacity="1" stop-color="rgb(84.5047%, 100%, 76.921082%)" offset="0.847656"/><stop stop-opacity="1" stop-color="rgb(84.55658%, 100%, 76.708984%)" offset="0.855469"/><stop stop-opacity="1" stop-color="rgb(84.608459%, 100%, 76.498413%)" offset="0.863281"/><stop stop-opacity="1" stop-color="rgb(84.661865%, 100%, 76.286316%)" offset="0.871094"/><stop stop-opacity="1" stop-color="rgb(84.727478%, 100%, 76.022339%)" offset="0.878906"/><stop stop-opacity="1" stop-color="rgb(84.805298%, 100%, 75.704956%)" offset="0.890625"/><stop stop-opacity="1" stop-color="rgb(84.883118%, 100%, 75.387573%)" offset="0.902344"/><stop stop-opacity="1" stop-color="rgb(84.94873%, 100%, 75.12207%)" offset="0.914062"/><stop stop-opacity="1" stop-color="rgb(85.002136%, 100%, 74.909973%)" offset="0.921875"/><stop stop-opacity="1" stop-color="rgb(85.054016%, 100%, 74.697876%)" offset="0.929688"/><stop stop-opacity="1" stop-color="rgb(85.105896%, 100%, 74.487305%)" offset="0.9375"/><stop stop-opacity="1" stop-color="rgb(85.171509%, 100%, 74.221802%)" offset="0.945312"/><stop stop-opacity="1" stop-color="rgb(85.237122%, 100%, 73.957825%)" offset="0.957031"/><stop stop-opacity="1" stop-color="rgb(85.289001%, 100%, 73.745728%)" offset="0.964844"/><stop stop-opacity="1" stop-color="rgb(85.354614%, 100%, 73.48175%)" offset="0.972656"/><stop stop-opacity="1" stop-color="rgb(85.420227%, 100%, 73.216248%)" offset="0.984375"/><stop stop-opacity="1" stop-color="rgb(85.472107%, 100%, 73.00415%)" offset="0.992188"/><stop stop-opacity="1" stop-color="rgb(85.499573%, 100%, 72.898865%)" offset="1"/></radialGradient><clipPath id="725cbab361"><path d="M 202.625 542 L 485.996094 542 L 485.996094 755.84375 L 202.625 755.84375 Z M 202.625 542 " clip-rule="nonzero"/></clipPath><clipPath id="298e0ebe9b"><path d="M 400 510.289062 L 413 510.289062 L 413 545 L 400 545 Z M 400 510.289062 " clip-rule="nonzero"/></clipPath><clipPath id="59bb83840f"><path d="M 349.761719 615 L 372 615 L 372 658.039062 L 349.761719 658.039062 Z M 349.761719 615 " clip-rule="nonzero"/></clipPath></defs><rect x="-54" width="648" fill="#ffffff" y="-80.999999" height="971.999992" fill-opacity="1"/><rect x="-54" fill="url(#a781bc2edd)" width="648" y="-80.999999" height="971.999992"/><g clip-path="url(#725cbab361)"><path fill="#ffffff" d="M 422.117188 686.929688 C 419.015625 688.375 415.730469 689.929688 412.152344 691.402344 C 418.125 687.207031 423.910156 682.644531 429.792969 678.871094 C 440.472656 672.007812 450.878906 664.691406 461.371094 657.550781 C 464.507812 664.570312 468.648438 670.765625 474.058594 676.074219 C 468.4375 677.96875 463.273438 680.894531 457.121094 681.804688 C 448.929688 683.039062 441.007812 684.492188 433.003906 686.703125 C 429.773438 687.601562 426.507812 688.414062 423.238281 689.203125 C 427.425781 687.1875 431.191406 685.386719 434.648438 683.988281 C 436.359375 683.214844 438.035156 682.726562 439.589844 682.117188 C 441.164062 681.566406 442.691406 681.234375 444.097656 680.804688 C 446.988281 679.957031 449.5 679.230469 451.671875 678.59375 C 453.871094 677.988281 455.664062 677.351562 457.15625 676.78125 C 458.65625 676.210938 459.851562 675.742188 460.761719 675.355469 C 462.621094 674.601562 463.375 674.1875 463.3125 674.011719 C 463.257812 673.835938 462.390625 673.949219 460.449219 674.410156 C 459.492188 674.636719 458.261719 674.960938 456.722656 675.382812 C 455.960938 675.605469 455.113281 675.84375 454.203125 676.101562 C 453.28125 676.332031 452.261719 676.570312 451.175781 676.828125 C 448.996094 677.363281 446.484375 677.988281 443.601562 678.714844 C 442.128906 679.09375 440.527344 679.40625 438.902344 679.949219 C 437.289062 680.507812 435.515625 681.015625 433.746094 681.761719 C 430.167969 683.140625 426.3125 684.933594 422.117188 686.929688 Z M 411.242188 707.148438 C 409.667969 707.292969 404.082031 708.433594 400.972656 707.875 C 405.59375 706.863281 410 705.316406 414.5625 703.761719 C 422.339844 701.101562 429.992188 700.035156 438.191406 699.308594 C 445.902344 698.625 454.5625 698.441406 461.976562 696.003906 C 467.582031 694.15625 472.851562 691.457031 478.484375 689.828125 C 478.722656 690.242188 478.992188 690.65625 479.265625 691.070312 C 467.011719 698.285156 452.730469 700.6875 438.84375 702.949219 C 429.679688 704.449219 420.507812 706.335938 411.242188 707.148438 Z M 396.464844 694.964844 C 398.378906 693.011719 400.320312 691.109375 401.875 689.433594 C 410.394531 680.234375 418.953125 671.078125 427.527344 661.929688 C 437.796875 650.953125 447.953125 639.839844 458.363281 628.964844 C 463.671875 633.460938 468.730469 638.210938 473.351562 643.398438 C 458.65625 652.839844 444.585938 663.210938 429.890625 672.652344 C 419.226562 679.496094 408.351562 689.433594 396.464844 694.964844 Z M 396.1875 703.539062 C 395.582031 703.125 394.910156 702.738281 394.191406 702.398438 C 399.398438 701.339844 404.332031 699.425781 409.566406 698.109375 C 417.875 696.050781 426.121094 693.925781 434.382812 691.699219 C 442.40625 689.535156 450.328125 688.21875 458.5 686.800781 C 464.589844 685.753906 469.707031 682.984375 475.253906 681.117188 C 475.476562 682.550781 475.824219 683.886719 476.277344 685.144531 C 470.96875 686.914062 466.054688 689.691406 460.597656 690.988281 C 452.105469 693.03125 443.464844 693.566406 434.816406 694.429688 C 428.375 695.066406 422.023438 695.746094 415.871094 697.835938 C 409.375 700.0625 403.023438 702.621094 396.1875 703.539062 Z M 381.613281 716.625 C 381.613281 716.625 381.925781 713.890625 382.148438 713.117188 C 382.285156 712.613281 382.460938 712.132812 382.652344 711.644531 C 383.5 711.167969 383.820312 710.285156 383.738281 709.402344 C 384.980469 707.257812 386.785156 705.492188 389.230469 704.875 C 389.738281 705.332031 390.214844 705.820312 390.6875 706.308594 C 390.878906 706.6875 391.171875 707.007812 391.605469 707.292969 C 391.84375 707.570312 392.085938 707.847656 392.332031 708.121094 C 392.453125 708.261719 392.589844 708.378906 392.726562 708.460938 C 393.5 709.300781 394.265625 710.109375 395.027344 710.9375 C 394.503906 714.167969 388.917969 717.589844 385.433594 717.296875 C 384.355469 717.210938 382.523438 717.269531 381.613281 716.625 Z M 311.046875 614.480469 C 318.601562 600.082031 329.902344 586.453125 342.507812 576.203125 C 352.777344 567.855469 364.324219 560.128906 370.996094 548.480469 C 387.972656 559.730469 403.492188 572.449219 418.898438 585.78125 C 432.210938 597.292969 446.914062 607.964844 458.886719 620.941406 C 446.179688 634.015625 433.902344 647.511719 421.453125 660.828125 C 413.074219 669.78125 404.707031 678.714844 396.390625 687.722656 C 393.140625 691.226562 389.167969 694.726562 386.214844 698.644531 C 372.824219 686.859375 363.714844 670.113281 351.746094 656.933594 C 338.53125 642.414062 323.183594 629.964844 311.046875 614.480469 Z M 282.15625 738.386719 C 282.3125 736.886719 282.433594 735.375 282.5625 733.875 C 288.503906 733.535156 294.027344 731.789062 299.777344 730.078125 C 307.40625 727.832031 315.261719 726.773438 323.074219 725.355469 C 326.292969 724.765625 329.507812 724.113281 332.726562 723.453125 C 330.078125 724.25 327.453125 725.0625 324.824219 725.871094 C 310.789062 730.242188 296.769531 736.101562 282.15625 738.386719 Z M 274.609375 642.792969 C 265.621094 627.03125 255.378906 611.574219 244.578125 596.894531 C 265.464844 602.636719 285.320312 611.535156 306.171875 617.453125 C 306.449219 617.515625 306.695312 617.554688 306.933594 617.554688 C 318.683594 632.421875 333.296875 644.367188 346.03125 658.351562 C 357.671875 671.160156 366.828125 687.152344 379.277344 699.289062 C 365.742188 697.089844 353.050781 691.9375 339.949219 687.945312 C 327.675781 684.21875 315.058594 682.277344 302.546875 679.652344 C 300.328125 678.972656 299.050781 678.511719 297.097656 675.898438 C 294.898438 672.972656 292.011719 670.691406 289.542969 668.050781 C 282.820312 660.855469 279.433594 651.25 274.609375 642.792969 Z M 229.835938 603.761719 C 230.148438 603.125 230.417969 602.480469 230.628906 601.808594 C 234.449219 602.03125 238.238281 602.65625 242.039062 603.136719 C 242.296875 603.171875 242.542969 603.152344 242.765625 603.125 C 253.898438 618.363281 264.601562 634.464844 273.15625 651.054688 C 277.351562 659.199219 281.070312 667.066406 287.695312 673.515625 C 290.75 676.496094 292.929688 680.371094 295.847656 683.296875 C 297.613281 685.0625 301.277344 684.613281 303.578125 685.441406 C 304.183594 685.660156 304.699219 685.644531 305.167969 685.488281 C 318.390625 688.210938 331.585938 690.539062 344.476562 694.863281 C 347.144531 695.765625 349.785156 696.640625 352.453125 697.523438 C 350.890625 697.144531 349.390625 696.765625 347.898438 696.417969 C 342.285156 695.039062 337.058594 694.035156 332.3125 693.566406 C 322.917969 692.976562 315.945312 691.210938 310.421875 690.070312 C 304.949219 688.902344 301.09375 688.292969 298.617188 688.082031 C 296.140625 687.925781 295.074219 687.945312 295.054688 688.136719 C 295.054688 688.585938 299.296875 689.019531 310.007812 691.871094 C 312.722656 692.542969 315.851562 693.371094 319.523438 694.15625 C 321.335938 694.53125 323.304688 694.882812 325.410156 695.183594 C 327.5 695.433594 329.71875 695.691406 332.0625 695.949219 C 336.664062 696.472656 341.714844 697.484375 347.300781 698.882812 C 348.351562 699.152344 349.4375 699.425781 350.550781 699.703125 C 345.101562 699.160156 339.671875 698.582031 334.261719 697.917969 C 320.019531 696.195312 305.519531 695.175781 291.578125 691.640625 C 285.035156 685.074219 281.089844 676.257812 275.613281 668.824219 C 270.25 661.582031 264.738281 654.476562 259.171875 647.410156 C 248.296875 633.601562 240.105469 617.984375 229.835938 603.761719 Z M 227.03125 621.527344 C 229.835938 621.5 232.617188 621.527344 235.414062 621.859375 C 235.542969 621.878906 235.644531 621.878906 235.761719 621.878906 C 242.074219 631.777344 248.210938 641.808594 255.507812 651.074219 C 262.089844 659.457031 269.191406 667.773438 274.953125 676.765625 C 278.925781 682.984375 282.3125 689.5 287.464844 694.824219 C 287.695312 695.535156 288.230469 696.140625 289.175781 696.398438 C 303.851562 700.253906 319.226562 701.320312 334.261719 703.105469 C 334.457031 703.125 334.660156 703.144531 334.851562 703.171875 C 334.457031 703.191406 334.0625 703.191406 333.65625 703.207031 C 318.960938 703.722656 304.496094 707.359375 289.847656 707.414062 C 283.472656 700.632812 280.195312 692.113281 274.851562 684.574219 C 269.367188 676.847656 263.835938 669.136719 258.066406 661.636719 C 247.78125 648.238281 237.613281 634.6875 227.03125 621.527344 Z M 221.363281 627.152344 C 222.382812 626.855469 223.40625 626.644531 224.4375 626.507812 C 236.417969 641.375 248.175781 656.675781 259.410156 672.0625 C 264.644531 679.21875 270.113281 686.230469 274.480469 693.960938 C 278.097656 700.355469 281.660156 706.613281 286.875 711.859375 C 287.539062 712.511719 288.285156 712.703125 288.972656 712.574219 C 289.074219 712.59375 289.175781 712.613281 289.289062 712.613281 C 305.242188 712.648438 320.882812 708.519531 336.902344 708.304688 C 346.933594 708.167969 356.980469 708.433594 367 708.65625 C 362.335938 708.96875 357.671875 709.171875 352.96875 709.742188 C 345.515625 710.625 338.117188 711.859375 330.71875 713.027344 C 317.441406 715.140625 303.355469 714.617188 290.355469 718.253906 C 266.53125 688.515625 243.832031 657.902344 221.363281 627.152344 Z M 220.554688 640.871094 C 221.851562 640.628906 223.148438 640.445312 224.464844 640.300781 C 224.511719 640.300781 224.546875 640.289062 224.601562 640.289062 C 244.925781 667.976562 265.511719 695.496094 286.996094 722.308594 C 287.4375 723.421875 288.503906 724.214844 289.976562 723.765625 C 304.265625 719.28125 320.371094 719.945312 335.164062 717.527344 C 336.03125 717.386719 336.894531 717.277344 337.757812 717.15625 C 333.433594 718.097656 329.128906 718.996094 324.796875 719.789062 C 316.929688 721.207031 308.691406 722.035156 301.039062 724.28125 C 295.039062 726.066406 289.195312 728.207031 282.976562 728.660156 C 268.777344 716.835938 259.863281 698.820312 249.214844 683.96875 C 239.277344 670.113281 228.878906 655.8125 220.554688 640.871094 Z M 217.425781 652.59375 C 217.433594 652.5625 217.433594 652.546875 217.453125 652.527344 C 217.765625 651.609375 218.015625 650.464844 218.199219 649.242188 C 218.472656 648.894531 218.628906 648.496094 218.667969 648.046875 C 227.5 663.101562 238.144531 677.519531 248.332031 691.542969 C 257.976562 704.800781 265.5 720.121094 277.878906 731.097656 C 277.859375 731.246094 277.859375 731.390625 277.878906 731.53125 C 277.664062 731.90625 277.527344 732.339844 277.472656 732.789062 C 277.308594 734.503906 277.234375 736.230469 277.039062 737.933594 C 265.058594 723.488281 252.371094 709.464844 242.886719 693.207031 C 234.816406 679.359375 227.601562 665.023438 217.425781 652.59375 Z M 208.765625 651.699219 C 210.007812 651.40625 211.25 651.128906 212.492188 650.851562 C 212.484375 650.898438 212.484375 650.953125 212.457031 650.992188 C 212.289062 651.507812 212.289062 651.992188 212.390625 652.40625 C 212.058594 653.234375 212.097656 654.238281 212.84375 655.105469 C 225.125 669.707031 232.449219 687.363281 242.941406 703.152344 C 252.722656 717.902344 264.773438 731.003906 275.9375 744.695312 C 277.289062 746.382812 279.277344 745.441406 279.964844 743.886719 C 295.882812 741.828125 310.945312 735.605469 326.203125 730.886719 C 342.957031 725.695312 359.777344 720.699219 376.40625 715.125 C 376.480469 715.105469 376.523438 715.070312 376.597656 715.03125 C 376.5625 715.640625 376.5625 716.191406 376.636719 716.726562 C 343.472656 728.136719 312.261719 746.234375 276.902344 750.070312 C 276.835938 750.070312 276.800781 750.089844 276.738281 750.109375 C 269.265625 743.925781 265.097656 735.394531 259.632812 727.535156 C 253.980469 719.394531 247.226562 712.058594 241.292969 704.109375 C 234.566406 695.101562 228.347656 685.753906 222.070312 676.46875 C 216.761719 668.640625 211.738281 660.6875 208.765625 651.699219 Z M 204.753906 647.300781 C 203.382812 647.652344 202.574219 649.167969 202.953125 650.503906 C 205.859375 660.964844 211.472656 670.195312 217.601562 679.082031 C 223.957031 688.328125 230.023438 697.78125 236.820312 706.722656 C 243.824219 715.953125 251.773438 724.59375 257.929688 734.429688 C 262.519531 741.761719 266.984375 749.121094 273.910156 754.496094 C 274.472656 754.929688 275.070312 755.085938 275.660156 755.066406 C 276.007812 755.222656 276.40625 755.316406 276.902344 755.261719 C 313.359375 751.304688 345.304688 732.734375 379.550781 721.167969 C 381.105469 722.054688 383.148438 722.46875 385.433594 722.484375 C 390.722656 722.539062 397.171875 719.511719 399.382812 714.398438 C 399.59375 713.871094 399.765625 713.359375 399.90625 712.871094 C 415.199219 712.703125 430.425781 709.730469 445.453125 707.082031 C 458.988281 704.71875 472.558594 701.726562 484.207031 694.117188 C 485.320312 693.390625 485.992188 691.769531 485.136719 690.574219 C 484.328125 689.414062 483.554688 688.292969 482.847656 687.152344 C 482.929688 686.09375 482.394531 684.972656 481.429688 684.4375 C 480.90625 683.195312 480.507812 681.863281 480.296875 680.351562 C 480.289062 680.148438 480.234375 679.976562 480.175781 679.78125 C 481.890625 679.230469 483.03125 677.085938 481.273438 675.640625 C 474.308594 669.863281 469.320312 662.878906 465.714844 654.617188 C 469.910156 651.78125 474.160156 648.996094 478.457031 646.289062 C 479.507812 645.625 479.800781 644.578125 479.605469 643.621094 C 479.605469 643.050781 479.421875 642.460938 478.972656 641.925781 C 473.839844 635.808594 468.03125 630.378906 461.960938 625.226562 C 462.410156 624.785156 462.84375 624.316406 463.292969 623.847656 C 464.886719 623.332031 466.035156 621.132812 464.570312 619.457031 C 450.878906 603.863281 433.214844 591.226562 417.480469 577.738281 C 402.921875 565.242188 388.191406 553.503906 372.136719 542.976562 C 371.667969 542.683594 371.226562 542.5625 370.8125 542.5625 C 369.734375 542.085938 368.410156 542.25 367.726562 543.640625 C 360.699219 557.746094 346.398438 565.457031 335.128906 575.707031 C 323.949219 585.84375 313.644531 598.414062 306.585938 611.832031 C 306.421875 611.886719 306.261719 611.941406 306.105469 612.023438 C 283.289062 605.378906 261.609375 595.324219 238.414062 589.984375 C 235.292969 589.257812 233.914062 593.785156 236.628906 594.835938 C 237.28125 595.71875 237.945312 596.601562 238.597656 597.484375 C 235.246094 597.015625 231.890625 596.566406 228.503906 596.519531 C 226.855469 596.480469 226.027344 597.722656 225.992188 599.003906 C 225.871094 599.695312 225.695312 600.394531 225.421875 601.066406 C 225.394531 601.109375 225.125 601.652344 225.097656 601.71875 C 224.90625 602.050781 224.722656 602.378906 224.527344 602.691406 C 223.855469 603.824219 224.152344 604.921875 224.859375 605.664062 C 227.4375 609.171875 229.875 612.789062 232.238281 616.429688 C 228.796875 616.238281 225.320312 616.375 221.859375 616.394531 C 219.429688 616.394531 218.785156 619.144531 219.890625 620.636719 C 220 620.894531 220.121094 621.152344 220.324219 621.390625 C 220.5 621.601562 220.65625 621.824219 220.828125 622.035156 C 219.199219 622.429688 217.628906 622.945312 215.953125 623.652344 C 214.746094 624.179688 214.257812 626.164062 215.015625 627.195312 C 217.058594 629.984375 219.082031 632.761719 221.125 635.550781 C 219.394531 635.789062 217.664062 636.121094 215.988281 636.65625 C 215.574219 636.773438 215.246094 636.988281 214.988281 637.226562 C 214.296875 637.640625 213.808594 638.367188 213.808594 639.441406 C 213.808594 641.84375 213.78125 643.695312 213.632812 645.351562 C 210.644531 645.921875 207.707031 646.582031 204.753906 647.300781 " fill-opacity="1" fill-rule="nonzero"/></g><g clip-path="url(#298e0ebe9b)"><path fill="#737373" d="M 407.042969 543.144531 C 405.875 541.207031 404.8125 539.226562 403.914062 537.195312 C 403.46875 536.183594 403.058594 535.15625 402.703125 534.117188 C 402.347656 533.078125 402.039062 532.027344 401.804688 530.96875 C 401.332031 528.851562 401.121094 526.691406 401.304688 524.578125 C 401.394531 523.519531 401.59375 522.480469 401.890625 521.46875 C 402.1875 520.460938 402.59375 519.488281 403.09375 518.566406 C 403.59375 517.644531 404.191406 516.777344 404.863281 515.972656 C 405.53125 515.167969 406.277344 514.429688 407.074219 513.746094 C 407.867188 513.0625 408.710938 512.441406 409.582031 511.867188 C 409.800781 511.726562 410.023438 511.582031 410.242188 511.445312 C 410.464844 511.3125 410.691406 511.179688 410.914062 511.046875 C 411.136719 510.910156 411.367188 510.789062 411.59375 510.664062 C 411.824219 510.539062 412.050781 510.410156 412.285156 510.296875 C 411.242188 510.769531 410.214844 511.292969 409.21875 511.886719 C 408.222656 512.480469 407.261719 513.148438 406.355469 513.898438 C 406.132812 514.089844 405.914062 514.285156 405.6875 514.476562 C 405.472656 514.679688 405.257812 514.882812 405.046875 515.089844 C 404.941406 515.195312 404.839844 515.300781 404.738281 515.410156 L 404.582031 515.570312 C 404.53125 515.625 404.480469 515.675781 404.429688 515.734375 C 404.332031 515.847656 404.234375 515.957031 404.136719 516.070312 L 403.988281 516.238281 C 403.9375 516.292969 403.894531 516.355469 403.847656 516.414062 C 403.09375 517.339844 402.429688 518.355469 401.886719 519.445312 C 401.351562 520.535156 400.945312 521.703125 400.664062 522.902344 C 400.644531 522.980469 400.632812 523.054688 400.617188 523.128906 L 400.570312 523.359375 L 400.527344 523.585938 L 400.503906 523.699219 L 400.484375 523.8125 C 400.4375 524.117188 400.382812 524.425781 400.355469 524.734375 C 400.335938 524.886719 400.320312 525.042969 400.304688 525.199219 C 400.292969 525.351562 400.28125 525.507812 400.269531 525.664062 L 400.253906 525.894531 C 400.25 525.972656 400.246094 526.050781 400.246094 526.128906 C 400.238281 526.285156 400.234375 526.441406 400.230469 526.597656 C 400.207031 527.84375 400.304688 529.101562 400.488281 530.347656 C 400.507812 530.503906 400.539062 530.65625 400.566406 530.8125 C 400.589844 530.96875 400.617188 531.125 400.644531 531.28125 C 400.675781 531.433594 400.707031 531.589844 400.738281 531.742188 C 400.769531 531.898438 400.796875 532.054688 400.835938 532.207031 C 400.90625 532.515625 400.972656 532.824219 401.054688 533.132812 C 401.09375 533.285156 401.136719 533.4375 401.175781 533.589844 C 401.21875 533.746094 401.261719 533.894531 401.304688 534.050781 C 401.996094 536.492188 402.972656 538.871094 404.109375 541.183594 C 404.695312 542.378906 405.328125 543.558594 406 544.71875 C 406.382812 544.25 406.765625 543.78125 407.148438 543.320312 C 407.113281 543.261719 407.078125 543.203125 407.042969 543.144531 " fill-opacity="1" fill-rule="nonzero"/></g><g clip-path="url(#59bb83840f)"><path fill="#737373" d="M 371.472656 615.851562 C 371.171875 615.871094 370.871094 615.902344 370.570312 615.925781 C 369.367188 616.035156 368.167969 616.175781 366.976562 616.367188 C 365.785156 616.558594 364.601562 616.792969 363.429688 617.089844 C 363.136719 617.164062 362.84375 617.246094 362.554688 617.324219 L 362.335938 617.386719 L 362.117188 617.453125 L 361.683594 617.582031 C 361.539062 617.625 361.398438 617.675781 361.253906 617.726562 L 360.824219 617.867188 L 360.394531 618.023438 C 360.253906 618.078125 360.109375 618.128906 359.96875 618.1875 L 359.546875 618.351562 C 359.40625 618.410156 359.265625 618.472656 359.128906 618.53125 L 358.917969 618.621094 L 358.8125 618.667969 L 358.710938 618.714844 L 358.296875 618.910156 C 357.75 619.175781 357.210938 619.457031 356.6875 619.777344 L 356.492188 619.894531 C 356.425781 619.933594 356.363281 619.976562 356.296875 620.015625 C 356.167969 620.101562 356.039062 620.183594 355.910156 620.265625 L 355.535156 620.527344 L 355.441406 620.59375 L 355.347656 620.664062 L 355.164062 620.804688 C 354.675781 621.171875 354.203125 621.570312 353.765625 622 C 353.324219 622.429688 352.910156 622.890625 352.527344 623.375 C 352.148438 623.859375 351.808594 624.375 351.503906 624.910156 C 350.898438 625.980469 350.449219 627.132812 350.175781 628.304688 C 349.898438 629.480469 349.769531 630.671875 349.769531 631.851562 C 349.765625 633.027344 349.871094 634.1875 350.066406 635.324219 C 350.445312 637.597656 351.128906 639.765625 351.957031 641.835938 C 352.789062 643.90625 353.769531 645.886719 354.835938 647.789062 C 355.902344 649.691406 357.058594 651.515625 358.269531 653.277344 C 359.484375 655.035156 360.753906 656.734375 362.085938 658.351562 C 360.71875 656.496094 359.425781 654.554688 358.203125 652.542969 C 356.980469 650.53125 355.835938 648.445312 354.804688 646.28125 C 353.78125 644.117188 352.867188 641.871094 352.1875 639.535156 C 351.847656 638.371094 351.5625 637.183594 351.367188 635.984375 C 351.175781 634.78125 351.066406 633.5625 351.082031 632.347656 C 351.097656 631.132812 351.242188 629.921875 351.554688 628.757812 C 351.863281 627.59375 352.347656 626.480469 353.003906 625.472656 C 353.65625 624.460938 354.480469 623.566406 355.421875 622.796875 C 355.890625 622.410156 356.390625 622.054688 356.910156 621.726562 C 357.433594 621.402344 357.976562 621.109375 358.535156 620.835938 L 358.957031 620.640625 C 359.097656 620.578125 359.242188 620.515625 359.382812 620.453125 C 359.457031 620.421875 359.527344 620.390625 359.601562 620.359375 L 359.816406 620.273438 L 360.035156 620.1875 C 360.109375 620.160156 360.179688 620.128906 360.253906 620.105469 L 360.699219 619.945312 C 360.773438 619.914062 360.847656 619.890625 360.921875 619.867188 L 361.144531 619.792969 C 361.441406 619.6875 361.746094 619.601562 362.050781 619.507812 C 363.265625 619.15625 364.515625 618.882812 365.78125 618.667969 C 367.046875 618.449219 368.335938 618.296875 369.632812 618.1875 C 370.207031 618.140625 370.78125 618.101562 371.359375 618.070312 C 371.410156 617.335938 371.472656 616.59375 371.542969 615.847656 C 371.519531 615.847656 371.496094 615.851562 371.472656 615.851562 " fill-opacity="1" fill-rule="nonzero"/></g><path fill="#737373" d="M 446.929688 602.734375 L 446.976562 602.335938 C 446.988281 602.246094 447 602.160156 447.007812 602.070312 L 447.027344 601.804688 L 447.042969 601.539062 C 447.050781 601.449219 447.054688 601.363281 447.054688 601.273438 L 447.0625 600.746094 C 447.0625 600.703125 447.0625 600.65625 447.0625 600.613281 L 447.058594 600.480469 L 447.046875 600.21875 C 447.039062 600.042969 447.039062 599.867188 447.019531 599.695312 L 446.972656 599.175781 C 446.964844 599.085938 446.953125 599.003906 446.941406 598.917969 L 446.90625 598.660156 C 446.863281 598.316406 446.796875 597.980469 446.734375 597.640625 L 446.710938 597.515625 L 446.679688 597.390625 L 446.625 597.140625 C 446.585938 596.976562 446.550781 596.808594 446.507812 596.644531 L 446.371094 596.15625 L 446.304688 595.910156 C 446.28125 595.828125 446.253906 595.75 446.230469 595.667969 C 446.125 595.347656 446.03125 595.027344 445.910156 594.714844 L 445.742188 594.242188 C 445.683594 594.085938 445.617188 593.933594 445.558594 593.777344 C 445.0625 592.546875 444.480469 591.363281 443.851562 590.226562 L 443.613281 589.800781 L 443.554688 589.695312 L 443.492188 589.589844 L 443.367188 589.382812 L 443.121094 588.964844 L 442.996094 588.757812 L 442.867188 588.550781 C 442.695312 588.277344 442.523438 588.003906 442.351562 587.734375 C 442.171875 587.46875 441.996094 587.199219 441.816406 586.933594 C 441.09375 585.875 440.34375 584.84375 439.566406 583.84375 C 439.371094 583.59375 439.171875 583.347656 438.976562 583.101562 L 438.679688 582.730469 L 438.378906 582.367188 C 438.175781 582.125 437.976562 581.882812 437.777344 581.640625 C 437.570312 581.402344 437.367188 581.164062 437.160156 580.925781 L 436.855469 580.566406 L 436.542969 580.214844 C 436.335938 579.980469 436.128906 579.75 435.917969 579.515625 C 435.710938 579.28125 435.496094 579.054688 435.285156 578.824219 L 434.96875 578.480469 L 434.8125 578.308594 L 434.652344 578.136719 C 433.683594 577.105469 432.695312 576.101562 431.699219 575.113281 C 431.292969 575.9375 430.882812 576.769531 430.464844 577.605469 C 430.738281 577.886719 431.007812 578.167969 431.277344 578.453125 L 431.628906 578.828125 L 431.808594 579.011719 L 431.980469 579.203125 C 432.210938 579.453125 432.445312 579.703125 432.675781 579.957031 L 432.851562 580.144531 L 433.019531 580.339844 L 433.363281 580.722656 C 433.589844 580.976562 433.820312 581.230469 434.042969 581.492188 C 435.84375 583.558594 437.570312 585.703125 439.113281 587.972656 C 439.886719 589.105469 440.613281 590.265625 441.269531 591.460938 C 441.925781 592.652344 442.511719 593.878906 442.988281 595.128906 C 443.019531 595.207031 443.046875 595.289062 443.074219 595.367188 L 443.15625 595.601562 L 443.242188 595.839844 L 443.320312 596.074219 C 443.417969 596.394531 443.523438 596.710938 443.601562 597.03125 L 443.667969 597.269531 C 443.6875 597.351562 443.710938 597.429688 443.726562 597.507812 L 443.835938 597.988281 L 443.863281 598.109375 L 443.882812 598.230469 L 443.96875 598.714844 L 443.980469 598.773438 L 443.988281 598.832031 L 444.066406 599.4375 L 444.105469 599.917969 L 444.117188 600.039062 C 444.121094 600.078125 444.121094 600.117188 444.121094 600.15625 L 444.128906 600.398438 L 444.136719 600.636719 C 444.140625 600.71875 444.136719 600.796875 444.136719 600.878906 L 444.132812 601.117188 L 444.128906 601.234375 C 444.128906 601.273438 444.125 601.3125 444.121094 601.355469 L 444.089844 601.824219 L 444.03125 602.296875 C 444.023438 602.375 444.007812 602.449219 443.992188 602.527344 L 443.953125 602.757812 C 443.710938 603.988281 443.246094 605.160156 442.550781 606.21875 C 442.203125 606.746094 441.804688 607.25 441.363281 607.726562 C 441.253906 607.84375 441.148438 607.964844 441.027344 608.078125 L 440.851562 608.25 C 440.796875 608.304688 440.738281 608.363281 440.675781 608.417969 L 440.308594 608.75 L 439.929688 609.066406 C 439.414062 609.484375 438.867188 609.875 438.296875 610.246094 L 437.867188 610.515625 C 437.722656 610.601562 437.574219 610.6875 437.425781 610.773438 C 437.28125 610.863281 437.128906 610.941406 436.976562 611.027344 C 436.828125 611.109375 436.675781 611.191406 436.523438 611.269531 C 435.914062 611.589844 435.28125 611.882812 434.644531 612.160156 C 434.003906 612.441406 433.347656 612.691406 432.6875 612.9375 C 431.535156 613.351562 430.363281 613.71875 429.175781 614.046875 C 427.988281 614.371094 426.785156 614.65625 425.578125 614.914062 C 423.164062 615.421875 420.71875 615.804688 418.269531 616.101562 C 414.46875 616.5625 410.65625 616.824219 406.863281 616.957031 C 406.148438 617.898438 405.433594 618.820312 404.714844 619.722656 C 405.042969 619.71875 405.371094 619.714844 405.699219 619.710938 C 407.101562 619.691406 408.507812 619.652344 409.917969 619.59375 C 411.332031 619.535156 412.746094 619.453125 414.164062 619.347656 C 415.582031 619.246094 417.003906 619.117188 418.429688 618.957031 C 419.855469 618.796875 421.285156 618.613281 422.710938 618.386719 C 424.140625 618.15625 425.570312 617.898438 427 617.585938 L 427.535156 617.46875 L 428.070312 617.34375 L 428.339844 617.28125 L 428.605469 617.214844 L 429.140625 617.085938 L 429.671875 616.945312 L 429.941406 616.875 L 430.207031 616.800781 L 430.742188 616.652344 L 431.539062 616.417969 L 431.804688 616.332031 L 432.335938 616.167969 L 432.863281 615.992188 C 432.953125 615.960938 433.042969 615.933594 433.128906 615.902344 L 433.390625 615.808594 C 434.097656 615.5625 434.796875 615.292969 435.492188 615.003906 C 436.882812 614.421875 438.25 613.746094 439.566406 612.933594 C 439.730469 612.828125 439.894531 612.730469 440.058594 612.625 L 440.542969 612.296875 C 440.859375 612.070312 441.179688 611.84375 441.488281 611.597656 C 442.109375 611.113281 442.707031 610.589844 443.269531 610.011719 C 443.828125 609.433594 444.347656 608.808594 444.8125 608.132812 C 445.277344 607.457031 445.683594 606.730469 446.015625 605.96875 C 446.085938 605.804688 446.15625 605.636719 446.226562 605.472656 L 446.40625 604.960938 C 446.421875 604.917969 446.4375 604.875 446.449219 604.832031 L 446.566406 604.445312 L 446.640625 604.183594 L 446.703125 603.921875 L 446.761719 603.660156 C 446.785156 603.574219 446.804688 603.484375 446.816406 603.394531 L 446.910156 602.867188 C 446.917969 602.824219 446.925781 602.777344 446.929688 602.734375 " fill-opacity="1" fill-rule="nonzero"/><path fill="#737373" d="M 414.675781 579.691406 C 414.105469 579.949219 413.546875 580.214844 413.019531 580.480469 C 412.773438 580.605469 412.542969 580.722656 412.332031 580.839844 C 412.121094 580.949219 411.925781 581.058594 411.742188 581.160156 C 411.730469 581.167969 411.71875 581.175781 411.707031 581.179688 C 411.738281 581.171875 411.769531 581.160156 411.800781 581.148438 C 412.113281 581.03125 412.441406 580.90625 412.777344 580.773438 C 413.109375 580.644531 413.4375 580.507812 413.769531 580.371094 C 414.398438 580.113281 415.066406 579.824219 415.757812 579.515625 C 416.085938 579.371094 416.40625 579.226562 416.71875 579.085938 L 417.03125 578.941406 C 417.238281 578.84375 417.441406 578.753906 417.640625 578.660156 C 418.179688 578.410156 418.730469 578.152344 419.285156 577.886719 C 419.246094 577.898438 419.203125 577.914062 419.164062 577.929688 C 418.335938 578.210938 417.511719 578.515625 416.722656 578.824219 C 416.363281 578.96875 416 579.117188 415.648438 579.265625 C 415.289062 579.414062 414.953125 579.5625 414.675781 579.691406 Z M 408.875 582.539062 L 409.886719 581.800781 C 409.898438 581.792969 410.136719 581.621094 410.617188 581.320312 C 410.898438 581.144531 411.207031 580.964844 411.53125 580.78125 C 411.710938 580.679688 411.910156 580.570312 412.125 580.453125 C 412.34375 580.339844 412.574219 580.21875 412.820312 580.09375 C 413.355469 579.824219 413.917969 579.554688 414.496094 579.292969 C 414.777344 579.167969 415.113281 579.015625 415.480469 578.863281 C 415.835938 578.714844 416.199219 578.566406 416.5625 578.421875 C 417.359375 578.105469 418.1875 577.800781 419.023438 577.515625 C 419.949219 577.199219 420.914062 576.898438 421.886719 576.617188 L 422.046875 577.023438 C 422.039062 577.023438 421.582031 577.257812 420.832031 577.621094 C 420.644531 577.714844 420.4375 577.816406 420.210938 577.921875 L 419.496094 578.269531 C 418.933594 578.539062 418.371094 578.800781 417.824219 579.054688 C 417.625 579.148438 417.421875 579.242188 417.214844 579.335938 L 416.898438 579.480469 C 416.585938 579.625 416.261719 579.769531 415.9375 579.914062 C 415.238281 580.222656 414.566406 580.511719 413.9375 580.773438 C 413.597656 580.910156 413.269531 581.046875 412.9375 581.175781 C 412.601562 581.3125 412.269531 581.4375 411.953125 581.554688 C 411.269531 581.808594 410.640625 582.019531 410.078125 582.183594 Z M 417.207031 582.964844 C 417.074219 583.007812 416.9375 583.054688 416.800781 583.101562 C 415.925781 583.398438 415.050781 583.707031 414.195312 584.023438 C 413.394531 584.320312 412.585938 584.632812 411.792969 584.949219 C 411.410156 585.101562 411.03125 585.253906 410.664062 585.40625 C 410.476562 585.484375 410.292969 585.5625 410.113281 585.636719 C 409.933594 585.714844 409.757812 585.789062 409.582031 585.867188 C 408.902344 586.160156 408.222656 586.464844 407.5625 586.769531 C 406.867188 587.089844 406.269531 587.375 405.734375 587.640625 C 405.179688 587.917969 404.625 588.199219 404.09375 588.480469 C 403.835938 588.617188 403.582031 588.75 403.339844 588.878906 L 402.636719 589.269531 C 401.8125 589.730469 401.019531 590.199219 400.273438 590.660156 C 399.90625 590.886719 399.59375 591.09375 399.359375 591.246094 C 399.085938 591.425781 398.839844 591.59375 398.621094 591.742188 C 398.585938 591.769531 398.550781 591.792969 398.515625 591.816406 C 399.179688 591.570312 399.882812 591.292969 400.617188 590.988281 C 401.808594 590.492188 403.054688 589.949219 404.324219 589.363281 C 404.632812 589.222656 404.945312 589.078125 405.257812 588.929688 L 406.191406 588.492188 C 406.785156 588.210938 407.40625 587.910156 408.039062 587.605469 C 408.339844 587.457031 408.644531 587.308594 408.941406 587.160156 L 409.832031 586.722656 C 410.421875 586.429688 411 586.140625 411.558594 585.859375 L 413.179688 585.039062 C 413.699219 584.773438 414.199219 584.519531 414.671875 584.273438 C 415.058594 584.078125 415.421875 583.890625 415.769531 583.710938 L 416.007812 583.585938 C 416.429688 583.367188 416.816406 583.167969 417.167969 582.984375 C 417.183594 582.976562 417.195312 582.96875 417.207031 582.964844 Z M 396.132812 593.109375 L 397.058594 592.351562 C 397.074219 592.335938 397.5 591.988281 398.375 591.386719 C 398.59375 591.234375 398.84375 591.066406 399.121094 590.882812 C 399.355469 590.726562 399.671875 590.519531 400.042969 590.292969 C 400.792969 589.824219 401.59375 589.351562 402.421875 588.886719 L 403.132812 588.496094 C 403.378906 588.363281 403.628906 588.230469 403.890625 588.09375 C 404.425781 587.8125 404.980469 587.527344 405.539062 587.253906 C 406.078125 586.984375 406.683594 586.695312 407.378906 586.375 C 408.042969 586.066406 408.726562 585.761719 409.410156 585.464844 C 409.585938 585.390625 409.761719 585.3125 409.945312 585.238281 C 410.125 585.160156 410.308594 585.082031 410.496094 585.007812 C 410.867188 584.851562 411.246094 584.699219 411.632812 584.542969 C 412.429688 584.226562 413.238281 583.914062 414.042969 583.613281 C 414.902344 583.296875 415.78125 582.988281 416.660156 582.6875 C 417.667969 582.347656 418.582031 582.050781 419.464844 581.777344 L 419.628906 582.179688 L 419.027344 582.5 C 418.640625 582.703125 418.074219 583.003906 417.371094 583.371094 C 417.015625 583.554688 416.628906 583.753906 416.210938 583.972656 L 415.96875 584.09375 C 415.621094 584.277344 415.257812 584.464844 414.871094 584.664062 C 414.398438 584.90625 413.898438 585.164062 413.375 585.429688 L 411.753906 586.25 C 411.195312 586.53125 410.617188 586.820312 410.027344 587.113281 L 409.136719 587.550781 C 408.835938 587.699219 408.53125 587.847656 408.226562 587.996094 C 407.597656 588.304688 406.972656 588.601562 406.375 588.886719 L 405.441406 589.324219 C 405.128906 589.472656 404.816406 589.617188 404.503906 589.761719 C 403.230469 590.347656 401.980469 590.894531 400.785156 591.390625 C 399.507812 591.917969 398.320312 592.371094 397.265625 592.726562 Z M 372.777344 646.65625 C 372.46875 646.675781 372.195312 646.898438 372.128906 647.21875 C 372.050781 647.597656 372.296875 647.96875 372.675781 648.046875 C 372.859375 648.082031 373.046875 648.046875 373.203125 647.941406 C 373.359375 647.839844 373.464844 647.683594 373.503906 647.496094 L 373.71875 647.542969 L 373.503906 647.496094 C 373.582031 647.117188 373.335938 646.75 372.957031 646.671875 C 372.898438 646.660156 372.835938 646.65625 372.777344 646.65625 Z M 372.878906 648.492188 C 372.785156 648.5 372.6875 648.492188 372.589844 648.472656 C 371.976562 648.347656 371.578125 647.746094 371.703125 647.132812 C 371.828125 646.515625 372.429688 646.117188 373.042969 646.246094 C 373.65625 646.371094 374.054688 646.972656 373.929688 647.585938 C 373.871094 647.882812 373.695312 648.140625 373.445312 648.304688 C 373.273438 648.417969 373.078125 648.480469 372.878906 648.492188 Z M 438.414062 540.335938 L 438.664062 540.695312 C 437.371094 541.609375 436.390625 542.316406 435.488281 542.988281 C 435.09375 543.28125 434.707031 543.574219 434.328125 543.863281 L 432.792969 545.046875 C 432.675781 545.136719 432.558594 545.226562 432.441406 545.320312 C 430.492188 546.859375 428.570312 548.457031 426.726562 550.070312 C 423.238281 553.132812 419.863281 556.414062 416.699219 559.816406 C 415.207031 561.417969 413.730469 563.082031 412.3125 564.765625 L 411.53125 565.695312 C 411.472656 565.761719 411.421875 565.828125 411.367188 565.894531 L 410.261719 567.25 L 409.265625 568.496094 L 408.300781 569.742188 C 405.785156 573.015625 403.425781 576.382812 401.285156 579.734375 L 400.492188 580.984375 L 399.714844 582.238281 L 398.589844 584.113281 L 397.503906 585.988281 L 396.449219 587.863281 L 395.765625 589.113281 L 394.773438 590.988281 L 393.972656 592.550781 C 393.914062 592.660156 393.863281 592.757812 393.816406 592.859375 L 392.886719 594.730469 L 391.992188 596.601562 L 391.503906 597.664062 C 391.378906 597.933594 391.253906 598.203125 391.128906 598.46875 L 390.296875 600.339844 C 390.195312 600.558594 380.148438 622.289062 372.933594 640.128906 L 372.925781 640.144531 L 366.226562 653.710938 C 366.195312 653.769531 366.230469 653.808594 366.25 653.824219 C 366.277344 653.84375 366.320312 653.859375 366.363281 653.820312 C 369.238281 651.269531 374.648438 648.480469 376.238281 647.683594 C 376.242188 647.683594 376.261719 647.671875 376.261719 647.648438 C 376.265625 647.636719 376.261719 647.617188 376.238281 647.597656 C 375.878906 647.335938 375.535156 647.023438 375.21875 646.671875 L 374.703125 646.269531 C 373.898438 645.648438 373.644531 644.539062 374.105469 643.628906 L 374.5 642.847656 C 374.734375 642.390625 374.964844 641.933594 375.195312 641.476562 C 375.199219 641.46875 375.234375 641.394531 375.292969 641.265625 C 377.953125 635.65625 384.285156 622.480469 385.621094 621.269531 C 387.910156 619.195312 390.132812 617.769531 392.285156 616.386719 C 393.894531 615.355469 395.410156 614.382812 396.847656 613.207031 C 400.949219 609.855469 405.496094 605.046875 411.121094 598.101562 C 409.507812 598.8125 407.972656 599.480469 406.597656 600.078125 L 406.027344 600.324219 C 405.136719 600.710938 404.296875 601.070312 403.519531 601.402344 L 401.371094 602.320312 C 399.988281 602.910156 398.949219 603.347656 398.320312 603.609375 L 397.222656 604.0625 L 397.050781 603.664062 L 398.738281 602.878906 C 399.296875 602.621094 399.847656 602.359375 400.390625 602.105469 C 400.9375 601.847656 401.472656 601.59375 402.003906 601.339844 L 403.589844 600.585938 C 404.5625 600.121094 405.558594 599.636719 406.648438 599.105469 C 407.632812 598.625 408.617188 598.140625 409.570312 597.667969 C 410.542969 597.183594 411.4375 596.605469 412.296875 595.910156 C 412.492188 595.753906 412.6875 595.585938 412.878906 595.414062 C 413.046875 595.265625 413.246094 595.089844 413.441406 594.90625 C 413.769531 594.601562 414.113281 594.257812 414.496094 593.863281 C 416.242188 592.066406 417.867188 590.199219 419.460938 588.148438 C 419.648438 587.910156 419.832031 587.675781 420.011719 587.4375 L 420.382812 586.941406 C 420.4375 586.867188 420.492188 586.792969 420.546875 586.71875 C 420.894531 586.253906 421.25 585.769531 421.601562 585.277344 C 421.964844 584.78125 422.3125 584.289062 422.640625 583.8125 L 423.164062 583.070312 C 423.335938 582.820312 423.507812 582.570312 423.683594 582.320312 C 423.75 582.21875 423.824219 582.113281 423.898438 582.007812 L 424.738281 580.792969 C 424.792969 580.710938 424.855469 580.625 424.914062 580.542969 L 426.96875 577.617188 L 428.179688 575.957031 L 428.8125 575.109375 C 428.960938 574.910156 429.109375 574.714844 429.261719 574.519531 L 429.472656 574.246094 C 429.828125 573.773438 430.199219 573.3125 430.59375 572.820312 L 431.75 571.40625 L 432.394531 570.648438 L 433.507812 569.375 C 432.859375 569.589844 432.222656 569.800781 431.601562 570.003906 C 430.546875 570.351562 429.683594 570.628906 428.886719 570.878906 C 428.050781 571.144531 427.097656 571.441406 426.15625 571.730469 C 425.703125 571.867188 425.246094 572.003906 424.792969 572.140625 L 423.429688 572.535156 C 422.503906 572.800781 421.589844 573.054688 420.71875 573.285156 C 420.269531 573.402344 419.816406 573.519531 419.375 573.632812 C 418.929688 573.746094 418.484375 573.855469 418.042969 573.960938 C 417.144531 574.175781 416.261719 574.375 415.421875 574.546875 C 414.984375 574.636719 414.550781 574.722656 414.132812 574.800781 C 413.703125 574.882812 413.28125 574.957031 412.867188 575.027344 L 412.761719 574.605469 C 412.765625 574.605469 412.914062 574.554688 413.199219 574.457031 L 413.355469 574.40625 C 413.632812 574.3125 414.003906 574.183594 414.457031 574.027344 C 415.597656 573.628906 417.183594 573.058594 419.050781 572.375 C 419.53125 572.199219 420.035156 572.011719 420.558594 571.8125 L 420.582031 571.804688 C 421.101562 571.609375 421.644531 571.410156 422.199219 571.199219 C 422.761719 570.984375 423.347656 570.765625 423.941406 570.535156 C 424.546875 570.304688 425.164062 570.066406 425.792969 569.820312 L 427.730469 569.066406 C 428.390625 568.808594 429.066406 568.542969 429.746094 568.269531 C 431.066406 567.75 432.394531 567.207031 433.800781 566.636719 L 433.964844 566.570312 C 434.203125 566.472656 434.4375 566.371094 434.664062 566.269531 C 434.777344 566.214844 434.890625 566.160156 435.003906 566.105469 C 435.117188 566.050781 435.230469 565.996094 435.339844 565.941406 C 435.792969 565.710938 436.210938 565.472656 436.582031 565.226562 C 436.675781 565.167969 436.769531 565.101562 436.859375 565.039062 C 436.953125 564.976562 437.042969 564.910156 437.128906 564.847656 C 437.304688 564.714844 437.464844 564.585938 437.613281 564.453125 C 437.761719 564.320312 437.898438 564.183594 438.019531 564.050781 C 438.160156 563.894531 438.261719 563.765625 438.351562 563.640625 C 438.519531 563.398438 438.691406 563.15625 438.859375 562.921875 C 439.03125 562.683594 439.207031 562.453125 439.378906 562.226562 C 439.546875 562.003906 439.722656 561.769531 439.902344 561.550781 C 440.074219 561.332031 440.25 561.117188 440.421875 560.902344 L 440.703125 560.5625 L 440.984375 560.234375 C 441.148438 560.042969 441.308594 559.851562 441.472656 559.664062 L 442.105469 558.960938 C 442.246094 558.804688 442.386719 558.648438 442.53125 558.496094 C 443.867188 557.054688 445.195312 555.757812 446.476562 554.5 L 446.65625 554.328125 C 447.988281 553.027344 449.289062 551.746094 450.597656 550.355469 C 450.757812 550.183594 450.921875 550.011719 451.082031 549.832031 C 451.242188 549.65625 451.40625 549.480469 451.566406 549.300781 L 452.058594 548.753906 C 452.21875 548.570312 452.382812 548.382812 452.542969 548.195312 C 453.046875 547.617188 453.570312 547 454.132812 546.308594 L 451.292969 547.140625 L 447.933594 548.167969 C 447.703125 548.238281 447.472656 548.3125 447.242188 548.382812 L 446.324219 548.675781 C 446.148438 548.730469 445.972656 548.785156 445.800781 548.84375 C 443.378906 549.617188 440.878906 550.449219 438.371094 551.3125 C 438.195312 551.371094 438.023438 551.429688 437.855469 551.488281 L 436.164062 552.074219 C 436.023438 552.121094 435.886719 552.171875 435.753906 552.21875 L 431.503906 553.71875 L 431.351562 553.308594 C 434.601562 552.027344 437.804688 550.789062 440.871094 549.632812 C 443.644531 548.585938 446.390625 547.578125 449.277344 546.558594 C 451.464844 545.78125 453.515625 544.851562 455.367188 543.789062 C 455.585938 543.664062 455.808594 543.53125 456.023438 543.398438 C 456.253906 543.261719 456.464844 543.128906 456.664062 543 C 456.769531 542.929688 456.871094 542.863281 456.972656 542.796875 C 457.078125 542.726562 457.179688 542.660156 457.277344 542.589844 C 457.472656 542.457031 457.671875 542.316406 457.863281 542.175781 C 458.054688 542.035156 458.246094 541.894531 458.425781 541.75 C 458.496094 541.695312 458.566406 541.640625 458.632812 541.585938 L 458.699219 541.535156 C 458.789062 541.460938 458.875 541.390625 458.960938 541.320312 C 459.140625 541.171875 459.3125 541.019531 459.472656 540.878906 C 459.636719 540.734375 459.796875 540.585938 459.953125 540.433594 C 460.050781 540.339844 460.148438 540.246094 460.25 540.148438 L 460.640625 539.777344 C 460.71875 539.703125 460.792969 539.632812 460.867188 539.558594 L 462.664062 537.875 C 462.683594 537.855469 462.703125 537.839844 462.722656 537.820312 L 461.277344 538.375 L 460.523438 538.671875 C 460.414062 538.710938 460.308594 538.753906 460.203125 538.796875 L 459.40625 539.113281 C 459.320312 539.148438 459.234375 539.179688 459.148438 539.214844 L 458.332031 539.546875 C 458.207031 539.59375 458.089844 539.640625 457.972656 539.691406 L 455.859375 540.558594 C 455.761719 540.601562 455.710938 540.621094 455.710938 540.621094 L 455.507812 540.238281 C 458.308594 538.464844 460.957031 536.824219 463.378906 535.363281 C 465.496094 534.085938 467.625 532.839844 469.707031 531.65625 L 472.882812 529.058594 L 474.511719 527.777344 C 474.960938 527.425781 475.40625 527.085938 475.835938 526.757812 C 476.679688 526.109375 477.550781 525.460938 478.496094 524.769531 C 479.222656 524.238281 479.976562 523.695312 480.800781 523.109375 C 481.425781 522.671875 482.042969 522.242188 482.695312 521.792969 C 483.195312 521.449219 483.671875 521.125 484.113281 520.832031 C 484.410156 520.636719 484.652344 520.472656 484.84375 520.347656 C 484.730469 520.332031 484.613281 520.316406 484.488281 520.300781 C 483.652344 520.199219 482.683594 520.132812 481.605469 520.101562 C 480.050781 520.054688 478.339844 520.089844 476.527344 520.195312 C 474.210938 520.335938 471.734375 520.597656 469.175781 520.976562 C 468.890625 521.066406 468.597656 521.160156 468.304688 521.257812 L 468.085938 521.328125 C 467.949219 521.371094 467.816406 521.417969 467.683594 521.460938 L 466.929688 521.71875 C 466.011719 522.035156 465.242188 522.3125 464.515625 522.585938 C 462.753906 523.246094 461.042969 523.941406 459.429688 524.660156 C 457.65625 525.449219 455.957031 526.277344 454.371094 527.125 C 452.710938 528.011719 451.160156 528.929688 449.761719 529.855469 L 449.519531 529.492188 L 449.523438 529.492188 L 450.839844 528.625 L 451.816406 528 C 452 527.886719 452.195312 527.765625 452.398438 527.640625 L 452.746094 527.421875 C 452.839844 527.363281 452.9375 527.304688 453.035156 527.246094 L 453.492188 526.96875 C 454.9375 526.09375 456.445312 525.230469 457.972656 524.398438 C 458.082031 524.339844 458.191406 524.28125 458.300781 524.222656 L 458.960938 523.867188 C 459.074219 523.808594 459.1875 523.746094 459.304688 523.6875 L 459.992188 523.328125 C 460.109375 523.269531 460.226562 523.207031 460.347656 523.144531 L 460.703125 522.964844 C 461.101562 522.761719 461.511719 522.558594 461.925781 522.351562 L 462.078125 522.277344 C 461.851562 522.324219 461.625 522.375 461.394531 522.425781 L 460.761719 522.570312 C 460.648438 522.597656 460.535156 522.621094 460.421875 522.648438 L 460.308594 522.675781 C 460.007812 522.746094 459.703125 522.816406 459.394531 522.890625 C 459.085938 522.964844 458.777344 523.042969 458.464844 523.121094 C 458.160156 523.195312 457.863281 523.273438 457.558594 523.351562 L 456.5625 523.609375 C 456.242188 523.695312 455.917969 523.785156 455.589844 523.875 C 455.316406 523.949219 455.042969 524.023438 454.765625 524.101562 L 453.464844 524.476562 C 453.179688 524.558594 452.886719 524.644531 452.597656 524.734375 C 451.246094 525.140625 449.847656 525.582031 448.445312 526.050781 C 448.09375 526.171875 447.738281 526.292969 447.382812 526.414062 L 447.234375 526.464844 C 447.105469 526.507812 446.976562 526.554688 446.847656 526.597656 L 445.765625 526.980469 C 445.585938 527.046875 445.40625 527.109375 445.226562 527.175781 C 444.863281 527.308594 444.5 527.441406 444.132812 527.578125 C 443.96875 527.636719 443.8125 527.695312 443.652344 527.757812 L 442.480469 528.203125 C 442.339844 528.257812 442.203125 528.3125 442.0625 528.363281 L 441.925781 528.417969 C 441.558594 528.5625 441.183594 528.710938 440.8125 528.859375 C 440.441406 529.007812 440.066406 529.160156 439.691406 529.3125 C 438.046875 529.988281 436.5625 530.628906 435.152344 531.265625 L 433.277344 532.128906 C 433.136719 532.191406 432.996094 532.257812 432.859375 532.324219 C 432.476562 532.503906 432.09375 532.6875 431.707031 532.875 L 430.554688 533.4375 C 428.484375 534.457031 426.601562 535.605469 424.964844 536.847656 C 423.335938 538.082031 422.035156 539.34375 421.089844 540.59375 C 419.933594 542.121094 418.914062 543.679688 418.058594 545.21875 C 417.886719 545.523438 417.734375 545.816406 417.585938 546.101562 L 417.292969 546.675781 C 417.253906 546.753906 417.214844 546.824219 417.183594 546.898438 L 417.078125 547.125 C 416.9375 547.417969 416.808594 547.699219 416.691406 547.96875 C 416.574219 548.230469 416.472656 548.480469 416.375 548.722656 L 416.355469 548.777344 C 416.265625 549 416.179688 549.214844 416.105469 549.414062 C 416.03125 549.628906 415.960938 549.828125 415.898438 550.015625 C 415.832031 550.203125 415.777344 550.375 415.726562 550.535156 C 415.6875 550.65625 415.65625 550.765625 415.628906 550.867188 L 415.601562 550.960938 C 415.460938 551.460938 415.402344 551.734375 415.402344 551.738281 L 415.21875 552.597656 L 414.980469 551.75 C 414.871094 551.371094 414.789062 550.96875 414.730469 550.550781 C 414.683594 550.144531 414.660156 549.722656 414.660156 549.257812 C 414.660156 549.03125 414.675781 548.796875 414.691406 548.582031 C 414.707031 548.355469 414.730469 548.121094 414.761719 547.886719 C 414.789062 547.636719 414.835938 547.386719 414.875 547.175781 C 414.917969 546.9375 414.972656 546.691406 415.027344 546.449219 C 415.433594 544.710938 416.199219 542.832031 417.296875 540.84375 C 417.15625 540.925781 417.019531 541.007812 416.878906 541.089844 C 416.515625 541.304688 416.15625 541.519531 415.796875 541.738281 L 415.257812 542.0625 C 415.128906 542.140625 415 542.222656 414.871094 542.300781 L 414.734375 542.386719 C 414.386719 542.605469 414.039062 542.824219 413.695312 543.046875 C 413.519531 543.15625 413.351562 543.265625 413.183594 543.375 L 412.121094 544.078125 C 411.972656 544.175781 411.828125 544.273438 411.6875 544.371094 C 411.359375 544.59375 411.035156 544.816406 410.710938 545.042969 L 409.757812 545.714844 C 407.316406 547.46875 405.027344 549.289062 402.761719 551.28125 C 402.632812 551.394531 402.507812 551.507812 402.382812 551.617188 L 401.957031 552 C 401.691406 552.242188 401.425781 552.484375 401.160156 552.726562 C 400.902344 552.964844 400.640625 553.210938 400.382812 553.453125 L 399.992188 553.820312 C 399.863281 553.945312 399.734375 554.066406 399.609375 554.1875 L 398.46875 555.304688 C 398.382812 555.390625 398.296875 555.472656 398.214844 555.558594 L 397.238281 556.554688 C 397.152344 556.640625 397.066406 556.726562 396.980469 556.816406 L 396.621094 557.195312 C 394.75 559.152344 392.894531 561.238281 390.945312 563.570312 L 390.914062 563.605469 C 388.890625 566.027344 387.636719 568.496094 387.285156 570.753906 C 386.953125 572.898438 386.882812 575.007812 387.078125 577.023438 C 387.164062 577.820312 387.257812 578.375 387.320312 578.703125 C 387.398438 579.074219 387.449219 579.273438 387.453125 579.277344 L 387.683594 580.144531 L 387.082031 579.480469 C 386.855469 579.230469 386.644531 578.980469 386.457031 578.734375 C 386.265625 578.480469 386.082031 578.210938 385.910156 577.9375 C 385.742188 577.664062 385.578125 577.378906 385.425781 577.089844 C 385.289062 576.820312 385.152344 576.53125 385.015625 576.195312 C 384.886719 575.890625 384.769531 575.578125 384.660156 575.261719 C 384.558594 574.941406 384.464844 574.613281 384.382812 574.28125 C 384.339844 574.117188 384.300781 573.949219 384.261719 573.78125 L 384.160156 573.269531 C 384.132812 573.101562 384.105469 572.929688 384.078125 572.757812 L 383.785156 573.148438 C 383.613281 573.382812 383.441406 573.609375 383.28125 573.835938 C 382.929688 574.324219 382.59375 574.796875 382.269531 575.253906 C 381.953125 575.710938 381.648438 576.152344 381.355469 576.582031 L 380.933594 577.21875 L 380.535156 577.835938 C 379.996094 578.664062 379.523438 579.449219 379.121094 580.125 L 378.8125 580.652344 L 378.523438 581.167969 C 378.332031 581.507812 378.152344 581.839844 377.980469 582.160156 C 377.652344 582.785156 377.347656 583.402344 377.070312 583.984375 C 376.8125 584.546875 376.570312 585.105469 376.347656 585.644531 C 375.917969 586.726562 375.585938 587.703125 375.332031 588.625 C 375.265625 588.863281 375.199219 589.101562 375.140625 589.335938 C 375.109375 589.453125 375.082031 589.570312 375.054688 589.683594 L 374.972656 590.039062 C 374.855469 590.574219 374.761719 591.023438 374.683594 591.449219 C 374.605469 591.878906 374.527344 592.339844 374.4375 592.902344 L 374.324219 593.65625 L 374.105469 595.25 L 373.882812 596.984375 C 373.867188 597.085938 373.855469 597.1875 373.84375 597.292969 L 373.769531 597.910156 L 373.230469 602.167969 C 373.203125 602.371094 373.1875 602.578125 373.183594 602.78125 C 373.183594 602.878906 373.1875 602.980469 373.191406 603.078125 C 373.195312 603.171875 373.207031 603.269531 373.21875 603.367188 C 373.261719 603.742188 373.355469 604.117188 373.484375 604.484375 C 373.550781 604.667969 373.625 604.84375 373.703125 605.007812 C 373.789062 605.175781 373.882812 605.347656 373.984375 605.515625 C 374.179688 605.835938 374.414062 606.15625 374.679688 606.464844 C 374.960938 606.796875 375.273438 607.144531 375.695312 607.601562 C 376.050781 607.984375 376.417969 608.367188 376.789062 608.742188 C 377.140625 609.097656 377.523438 609.46875 377.964844 609.882812 C 378.167969 610.074219 378.371094 610.261719 378.582031 610.453125 L 379.21875 611.019531 L 378.949219 611.363281 L 378.792969 611.253906 C 378.714844 611.195312 378.609375 611.121094 378.480469 611.027344 C 378.074219 610.730469 377.640625 610.402344 377.195312 610.054688 C 376.898438 609.824219 376.597656 609.585938 376.296875 609.34375 L 375.796875 608.933594 L 375.273438 608.488281 C 374.890625 608.164062 374.507812 607.828125 374.128906 607.492188 L 373.527344 606.945312 C 373.460938 606.878906 373.390625 606.816406 373.324219 606.753906 C 373.628906 609.878906 374.429688 612.515625 375.707031 614.597656 C 375.789062 614.734375 375.871094 614.863281 375.953125 614.992188 C 376.050781 615.136719 376.132812 615.253906 376.210938 615.363281 C 376.390625 615.605469 376.574219 615.839844 376.761719 616.0625 L 376.78125 616.082031 C 378.277344 617.828125 379.148438 618.492188 379.640625 618.722656 C 382.371094 613.125 384.398438 608.484375 384.417969 608.4375 C 384.496094 608.238281 385.15625 606.648438 385.183594 606.582031 L 386.25 604.097656 L 387.078125 602.234375 L 388.234375 599.742188 L 388.53125 599.117188 C 388.839844 598.46875 389.167969 597.804688 389.484375 597.164062 L 390.0625 596 L 391.019531 594.132812 L 392.011719 592.257812 L 392.75 590.902344 C 392.789062 590.832031 392.824219 590.765625 392.863281 590.695312 L 393.738281 589.136719 C 393.816406 588.996094 393.898438 588.851562 393.984375 588.707031 L 394.816406 587.261719 C 394.898438 587.128906 394.976562 586.992188 395.058594 586.859375 L 395.933594 585.390625 L 396.703125 584.140625 C 396.886719 583.835938 397.085938 583.523438 397.273438 583.222656 L 397.683594 582.574219 C 397.878906 582.269531 398.078125 581.949219 398.285156 581.636719 L 399.09375 580.390625 L 399.929688 579.140625 C 401.128906 577.371094 402.277344 575.738281 403.445312 574.144531 C 404.695312 572.449219 405.984375 570.777344 407.277344 569.164062 C 409.984375 565.789062 412.914062 562.464844 415.980469 559.285156 C 417.578125 557.625 419.238281 555.988281 420.914062 554.410156 C 422.695312 552.734375 424.496094 551.121094 426.277344 549.609375 C 428.15625 548.007812 430.117188 546.425781 432.101562 544.90625 C 432.265625 544.78125 432.429688 544.65625 432.59375 544.53125 L 433.953125 543.511719 C 434.359375 543.210938 434.777344 542.902344 435.199219 542.601562 C 436.105469 541.941406 437.128906 541.21875 438.414062 540.335938 Z M 366.332031 654.277344 C 366.214844 654.285156 366.089844 654.25 365.988281 654.171875 C 365.785156 654.015625 365.722656 653.75 365.835938 653.519531 L 372.53125 639.957031 C 379.753906 622.109375 389.800781 600.375 389.902344 600.15625 L 390.734375 598.292969 C 390.855469 598.019531 390.980469 597.75 391.109375 597.480469 L 391.898438 595.789062 L 392.804688 593.914062 L 393.425781 592.667969 C 393.472656 592.566406 393.527344 592.464844 393.578125 592.359375 L 394.386719 590.789062 L 395.382812 588.90625 L 396.414062 587.027344 L 397.484375 585.144531 L 398.589844 583.265625 L 399.34375 582.011719 L 400.519531 580.128906 L 400.917969 579.5 C 403.066406 576.136719 405.433594 572.761719 407.953125 569.476562 L 408.925781 568.226562 L 410.429688 566.351562 L 411.027344 565.621094 C 411.085938 565.550781 411.140625 565.484375 411.195312 565.417969 L 411.980469 564.484375 C 413.40625 562.796875 414.886719 561.128906 416.378906 559.519531 C 416.582031 559.304688 416.785156 559.089844 416.984375 558.875 C 416.753906 559.109375 416.523438 559.347656 416.292969 559.585938 C 413.238281 562.757812 410.316406 566.070312 407.617188 569.4375 C 406.328125 571.042969 405.042969 572.714844 403.796875 574.402344 C 402.632812 575.992188 401.484375 577.621094 400.292969 579.382812 L 399.457031 580.628906 L 398.648438 581.875 C 398.445312 582.1875 398.246094 582.503906 398.050781 582.808594 L 397.640625 583.457031 C 397.453125 583.753906 397.257812 584.0625 397.074219 584.367188 L 396.308594 585.613281 L 395.433594 587.082031 C 395.351562 587.214844 395.273438 587.347656 395.195312 587.484375 L 394.359375 588.925781 C 394.277344 589.066406 394.195312 589.207031 394.117188 589.347656 L 393.242188 590.910156 C 393.207031 590.976562 393.167969 591.042969 393.132812 591.109375 L 392.0625 593.085938 L 391.085938 594.953125 L 390.136719 596.820312 L 389.875 597.355469 C 389.558594 597.996094 389.230469 598.65625 388.925781 599.304688 L 388.335938 600.546875 L 387.476562 602.410156 L 386.648438 604.273438 L 385.585938 606.75 C 385.582031 606.765625 384.902344 608.402344 384.820312 608.605469 C 384.796875 608.660156 382.722656 613.40625 379.945312 619.09375 L 379.859375 619.261719 L 379.679688 619.203125 C 378.949219 618.96875 377.859375 618.011719 376.449219 616.363281 L 376.433594 616.34375 C 376.238281 616.113281 376.042969 615.871094 375.859375 615.621094 C 375.777344 615.503906 375.691406 615.382812 375.589844 615.230469 C 375.503906 615.097656 375.417969 614.964844 375.335938 614.828125 C 373.945312 612.558594 373.105469 609.664062 372.839844 606.21875 L 372.796875 605.65625 L 373.207031 606.042969 C 373.414062 606.242188 373.621094 606.4375 373.820312 606.625 L 374.421875 607.167969 C 374.792969 607.5 375.175781 607.832031 375.554688 608.15625 L 375.875 608.425781 C 375.707031 608.25 375.539062 608.074219 375.378906 607.898438 C 374.949219 607.4375 374.632812 607.082031 374.347656 606.746094 C 374.070312 606.421875 373.824219 606.082031 373.613281 605.742188 C 373.503906 605.5625 373.402344 605.382812 373.3125 605.199219 C 373.226562 605.019531 373.148438 604.828125 373.074219 604.628906 C 372.933594 604.234375 372.835938 603.824219 372.785156 603.417969 C 372.773438 603.316406 372.761719 603.207031 372.757812 603.101562 C 372.75 602.996094 372.75 602.890625 372.75 602.777344 C 372.753906 602.558594 372.769531 602.335938 372.796875 602.113281 L 373.410156 597.242188 C 373.421875 597.136719 373.4375 597.027344 373.453125 596.921875 L 374.007812 592.835938 C 374.097656 592.269531 374.175781 591.804688 374.253906 591.371094 C 374.335938 590.941406 374.429688 590.484375 374.550781 589.941406 L 374.628906 589.585938 C 374.660156 589.464844 374.6875 589.34375 374.71875 589.226562 C 374.78125 588.988281 374.84375 588.75 374.914062 588.507812 C 375.167969 587.574219 375.507812 586.582031 375.945312 585.480469 C 376.167969 584.933594 376.414062 584.371094 376.675781 583.800781 C 376.957031 583.210938 377.265625 582.589844 377.59375 581.957031 C 377.769531 581.628906 377.953125 581.296875 378.144531 580.957031 L 378.742188 579.90625 C 379.148438 579.222656 379.625 578.429688 380.167969 577.597656 L 380.996094 576.339844 C 381.289062 575.90625 381.59375 575.460938 381.910156 575.003906 C 382.238281 574.542969 382.574219 574.070312 382.925781 573.582031 C 383.089844 573.355469 383.261719 573.125 383.4375 572.886719 L 384.375 571.636719 L 384.4375 572.175781 C 384.480469 572.523438 384.53125 572.863281 384.589844 573.195312 L 384.6875 573.6875 C 384.722656 573.851562 384.761719 574.015625 384.804688 574.175781 C 384.886719 574.5 384.976562 574.816406 385.074219 575.125 C 385.179688 575.429688 385.292969 575.734375 385.414062 576.027344 C 385.550781 576.351562 385.679688 576.632812 385.8125 576.890625 C 385.957031 577.167969 386.117188 577.445312 386.28125 577.707031 C 386.445312 577.96875 386.625 578.230469 386.804688 578.472656 C 386.820312 578.492188 386.832031 578.507812 386.84375 578.523438 C 386.785156 578.183594 386.714844 577.699219 386.644531 577.066406 C 386.445312 575.011719 386.515625 572.867188 386.855469 570.6875 C 387.21875 568.351562 388.507812 565.804688 390.578125 563.328125 L 390.609375 563.292969 C 392.566406 560.953125 394.425781 558.859375 396.304688 556.894531 L 396.667969 556.515625 C 396.753906 556.425781 396.839844 556.335938 396.925781 556.25 L 397.90625 555.253906 C 397.992188 555.167969 398.074219 555.082031 398.164062 554.996094 L 399.304688 553.878906 C 399.429688 553.753906 399.5625 553.628906 399.691406 553.507812 L 400.082031 553.136719 C 400.34375 552.894531 400.605469 552.648438 400.863281 552.40625 C 401.132812 552.160156 401.398438 551.917969 401.667969 551.675781 L 402.09375 551.292969 C 402.21875 551.179688 402.347656 551.066406 402.476562 550.953125 C 404.753906 548.953125 407.050781 547.125 409.503906 545.363281 L 410.464844 544.683594 C 410.785156 544.460938 411.113281 544.234375 411.4375 544.011719 C 411.582031 543.914062 411.730469 543.816406 411.878906 543.714844 L 412.945312 543.011719 C 413.117188 542.898438 413.285156 542.789062 413.460938 542.679688 C 413.804688 542.457031 414.152344 542.238281 414.503906 542.019531 L 414.640625 541.933594 C 414.773438 541.851562 414.902344 541.769531 415.03125 541.691406 L 415.570312 541.363281 C 415.929688 541.144531 416.292969 540.929688 416.660156 540.714844 C 417.027344 540.496094 417.402344 540.28125 417.777344 540.066406 L 418.484375 539.660156 L 418.070312 540.367188 C 416.777344 542.570312 415.898438 544.652344 415.453125 546.546875 C 415.394531 546.785156 415.347656 547.023438 415.300781 547.253906 C 415.265625 547.457031 415.222656 547.699219 415.191406 547.941406 C 415.164062 548.167969 415.140625 548.394531 415.125 548.613281 C 415.109375 548.820312 415.09375 549.042969 415.097656 549.257812 C 415.09375 549.707031 415.117188 550.109375 415.164062 550.496094 C 415.175781 550.585938 415.191406 550.675781 415.203125 550.761719 L 415.207031 550.75 C 415.238281 550.644531 415.273438 550.527344 415.3125 550.402344 C 415.363281 550.242188 415.421875 550.066406 415.484375 549.878906 C 415.550781 549.6875 415.621094 549.484375 415.699219 549.265625 C 415.773438 549.058594 415.859375 548.84375 415.949219 548.613281 L 415.96875 548.570312 C 416.070312 548.3125 416.175781 548.0625 416.292969 547.792969 C 416.414062 547.519531 416.542969 547.234375 416.683594 546.9375 L 416.789062 546.714844 C 416.824219 546.636719 416.863281 546.558594 416.902344 546.480469 L 417.199219 545.902344 C 417.347656 545.613281 417.503906 545.3125 417.679688 545.003906 C 418.542969 543.449219 419.574219 541.878906 420.742188 540.332031 C 421.710938 539.046875 423.042969 537.757812 424.699219 536.5 C 426.359375 535.242188 428.265625 534.082031 430.363281 533.042969 L 431.519531 532.480469 C 431.90625 532.296875 432.289062 532.113281 432.671875 531.929688 C 432.808594 531.863281 432.949219 531.800781 433.09375 531.734375 L 434.398438 531.128906 L 434.972656 530.871094 C 436.386719 530.230469 437.878906 529.589844 439.527344 528.910156 C 439.902344 528.757812 440.277344 528.605469 440.648438 528.457031 C 441.023438 528.304688 441.398438 528.160156 441.769531 528.015625 L 441.90625 527.960938 C 442.042969 527.90625 442.183594 527.851562 442.324219 527.796875 L 443.496094 527.351562 C 443.660156 527.289062 443.820312 527.230469 443.980469 527.167969 C 444.347656 527.03125 444.714844 526.898438 445.078125 526.765625 C 445.257812 526.699219 445.4375 526.636719 445.621094 526.570312 L 446.703125 526.1875 C 446.832031 526.144531 446.960938 526.097656 447.09375 526.054688 L 447.242188 526.003906 C 447.601562 525.878906 447.953125 525.757812 448.308594 525.640625 C 449.714844 525.167969 451.117188 524.722656 452.472656 524.316406 C 452.765625 524.226562 453.054688 524.144531 453.34375 524.058594 L 454.648438 523.683594 C 454.925781 523.605469 455.199219 523.527344 455.476562 523.453125 C 455.804688 523.363281 456.128906 523.277344 456.449219 523.191406 L 457.449219 522.929688 C 457.753906 522.851562 458.058594 522.773438 458.359375 522.699219 C 458.671875 522.621094 458.984375 522.542969 459.289062 522.46875 C 459.601562 522.394531 459.910156 522.324219 460.210938 522.25 L 460.324219 522.226562 C 460.4375 522.199219 460.550781 522.171875 460.664062 522.144531 L 461.296875 522.003906 C 461.535156 521.949219 461.769531 521.898438 462.003906 521.847656 C 462.300781 521.785156 462.589844 521.722656 462.878906 521.660156 C 463.023438 521.628906 463.167969 521.601562 463.3125 521.570312 L 465.515625 521.125 L 463.875 521.894531 C 463.402344 522.117188 462.9375 522.34375 462.484375 522.5625 L 462.121094 522.742188 C 461.707031 522.945312 461.296875 523.148438 460.902344 523.351562 L 460.542969 523.535156 C 460.425781 523.59375 460.308594 523.652344 460.195312 523.714844 L 459.503906 524.074219 C 459.390625 524.132812 459.28125 524.191406 459.167969 524.25 L 458.574219 524.570312 C 458.800781 524.464844 459.023438 524.363281 459.25 524.265625 C 460.871094 523.542969 462.589844 522.839844 464.363281 522.175781 C 465.09375 521.902344 465.863281 521.625 466.789062 521.304688 L 467.542969 521.050781 C 467.679688 521.003906 467.8125 520.957031 467.949219 520.914062 L 468.167969 520.84375 C 468.472656 520.742188 468.769531 520.648438 469.0625 520.554688 L 469.097656 520.546875 C 471.675781 520.164062 474.164062 519.898438 476.503906 519.761719 C 478.328125 519.652344 480.050781 519.621094 481.617188 519.667969 C 482.707031 519.699219 483.691406 519.765625 484.542969 519.871094 C 484.792969 519.898438 485.019531 519.933594 485.242188 519.96875 C 485.308594 519.980469 485.363281 519.992188 485.402344 520 L 485.46875 520.011719 L 485.996094 520.113281 L 485.242188 520.605469 C 485.039062 520.738281 484.742188 520.9375 484.355469 521.195312 C 483.917969 521.488281 483.441406 521.8125 482.941406 522.152344 C 482.292969 522.597656 481.675781 523.027344 481.054688 523.464844 C 480.230469 524.050781 479.476562 524.589844 478.753906 525.121094 C 477.8125 525.8125 476.945312 526.460938 476.101562 527.101562 C 475.667969 527.429688 475.230469 527.773438 474.777344 528.121094 L 472.378906 530.023438 L 469.941406 532.027344 C 467.855469 533.210938 465.722656 534.460938 463.601562 535.738281 C 461.808594 536.816406 459.894531 537.996094 457.878906 539.257812 C 457.972656 539.21875 458.070312 539.179688 458.171875 539.140625 L 458.984375 538.8125 C 459.070312 538.777344 459.160156 538.742188 459.246094 538.707031 L 460.042969 538.390625 C 460.148438 538.347656 460.253906 538.304688 460.363281 538.265625 L 463.617188 537.015625 L 464.6875 536.621094 L 463.839844 537.382812 C 463.746094 537.464844 463.65625 537.550781 463.5625 537.636719 L 463.179688 537.988281 C 463.109375 538.058594 463.035156 538.125 462.960938 538.191406 L 461.167969 539.875 C 461.089844 539.949219 461.015625 540.019531 460.941406 540.089844 L 460.550781 540.464844 C 460.453125 540.558594 460.351562 540.652344 460.253906 540.746094 C 460.09375 540.902344 459.929688 541.054688 459.757812 541.207031 C 459.597656 541.347656 459.421875 541.503906 459.242188 541.652344 C 459.152344 541.726562 459.0625 541.800781 458.96875 541.875 L 458.90625 541.925781 C 458.835938 541.980469 458.765625 542.039062 458.695312 542.09375 C 458.507812 542.238281 458.316406 542.386719 458.121094 542.527344 C 457.925781 542.671875 457.722656 542.8125 457.523438 542.949219 C 457.421875 543.019531 457.320312 543.089844 457.214844 543.15625 C 457.113281 543.226562 457.007812 543.296875 456.902344 543.363281 C 456.699219 543.496094 456.480469 543.632812 456.253906 543.769531 C 456.035156 543.90625 455.808594 544.039062 455.582031 544.167969 C 453.710938 545.238281 451.636719 546.183594 449.421875 546.96875 C 447.265625 547.730469 445.1875 548.484375 443.113281 549.257812 C 443.972656 548.972656 444.824219 548.699219 445.667969 548.429688 C 445.839844 548.371094 446.015625 548.316406 446.191406 548.261719 L 447.113281 547.96875 C 447.339844 547.898438 447.570312 547.824219 447.804688 547.75 L 451.167969 546.722656 L 454.277344 545.816406 C 454.410156 545.777344 454.542969 545.738281 454.679688 545.699219 L 455.332031 545.519531 L 454.90625 546.046875 C 454.171875 546.957031 453.507812 547.753906 452.875 548.476562 C 452.710938 548.667969 452.546875 548.855469 452.382812 549.042969 L 451.894531 549.589844 C 451.730469 549.773438 451.5625 549.949219 451.402344 550.128906 C 451.238281 550.304688 451.078125 550.480469 450.914062 550.652344 C 449.601562 552.050781 448.292969 553.335938 446.960938 554.640625 L 446.78125 554.8125 C 445.503906 556.066406 444.179688 557.359375 442.847656 558.792969 C 442.703125 558.945312 442.566406 559.097656 442.425781 559.253906 L 441.800781 559.953125 C 441.640625 560.136719 441.480469 560.324219 441.316406 560.515625 L 440.761719 561.175781 C 440.589844 561.390625 440.414062 561.605469 440.242188 561.824219 C 440.066406 562.039062 439.902344 562.257812 439.726562 562.488281 C 439.554688 562.714844 439.382812 562.941406 439.210938 563.175781 C 439.042969 563.410156 438.875 563.648438 438.707031 563.890625 C 438.609375 564.027344 438.496094 564.171875 438.34375 564.34375 C 438.210938 564.488281 438.0625 564.632812 437.902344 564.777344 C 437.746094 564.917969 437.574219 565.058594 437.390625 565.195312 C 437.296875 565.265625 437.203125 565.332031 437.109375 565.398438 C 437.015625 565.460938 436.917969 565.527344 436.820312 565.59375 C 436.433594 565.84375 436.003906 566.09375 435.539062 566.328125 C 435.421875 566.386719 435.308594 566.441406 435.191406 566.5 C 435.078125 566.554688 434.960938 566.609375 434.84375 566.664062 C 434.613281 566.769531 434.371094 566.875 434.132812 566.972656 L 433.964844 567.039062 C 432.558594 567.613281 431.226562 568.152344 429.90625 568.675781 C 429.226562 568.945312 428.550781 569.210938 427.890625 569.472656 L 425.953125 570.226562 C 425.320312 570.472656 424.703125 570.710938 424.097656 570.941406 C 423.5 571.167969 422.917969 571.394531 422.351562 571.605469 C 421.796875 571.816406 421.253906 572.019531 420.734375 572.214844 L 420.710938 572.222656 C 420.1875 572.417969 419.683594 572.605469 419.199219 572.78125 C 417.894531 573.261719 416.722656 573.6875 415.75 574.035156 C 416.457031 573.882812 417.195312 573.71875 417.941406 573.539062 C 418.382812 573.433594 418.824219 573.324219 419.265625 573.210938 C 419.707031 573.097656 420.160156 572.984375 420.605469 572.863281 C 421.476562 572.632812 422.386719 572.382812 423.308594 572.117188 L 424.667969 571.722656 C 425.121094 571.585938 425.578125 571.449219 426.03125 571.3125 C 426.96875 571.027344 427.917969 570.730469 428.757812 570.464844 C 429.550781 570.214844 430.414062 569.933594 431.46875 569.589844 C 432.335938 569.304688 433.238281 569.007812 434.148438 568.699219 L 434.933594 568.433594 L 433 570.613281 L 431.207031 572.75 L 430.933594 573.09375 C 430.542969 573.582031 430.171875 574.042969 429.820312 574.507812 L 429.609375 574.785156 C 429.457031 574.980469 429.304688 575.175781 429.160156 575.371094 L 427.917969 577.050781 L 426.75 578.679688 L 426.183594 579.476562 L 425.269531 580.792969 C 425.210938 580.875 425.152344 580.957031 425.097656 581.039062 L 424.253906 582.261719 C 424.183594 582.363281 424.113281 582.464844 424.042969 582.566406 C 423.867188 582.820312 423.695312 583.070312 423.519531 583.320312 L 423 584.0625 C 422.667969 584.539062 422.316406 585.03125 421.953125 585.53125 C 421.601562 586.027344 421.246094 586.515625 420.894531 586.980469 C 420.839844 587.054688 420.785156 587.125 420.730469 587.199219 L 420.359375 587.699219 C 420.175781 587.9375 419.992188 588.179688 419.804688 588.417969 C 418.203125 590.476562 416.566406 592.359375 414.808594 594.167969 C 414.421875 594.566406 414.070312 594.914062 413.738281 595.226562 C 413.539062 595.410156 413.339844 595.589844 413.167969 595.742188 C 412.96875 595.917969 412.769531 596.085938 412.570312 596.246094 C 411.6875 596.964844 410.769531 597.558594 409.765625 598.058594 C 408.8125 598.53125 407.824219 599.015625 406.839844 599.496094 C 406.832031 599.5 406.820312 599.503906 406.8125 599.507812 C 408.324219 598.851562 410.007812 598.121094 411.765625 597.34375 L 412.582031 596.984375 L 412.023438 597.679688 C 406.117188 605.023438 401.382812 610.0625 397.125 613.542969 C 395.667969 614.734375 394.140625 615.714844 392.519531 616.753906 C 390.382812 618.125 388.175781 619.542969 385.910156 621.59375 C 384.871094 622.539062 379.945312 632.472656 375.6875 641.453125 C 375.621094 641.589844 375.585938 641.667969 375.582031 641.675781 C 375.351562 642.128906 375.121094 642.585938 374.890625 643.042969 L 374.492188 643.824219 C 374.128906 644.546875 374.328125 645.433594 374.96875 645.925781 L 375.53125 646.363281 C 375.832031 646.699219 376.15625 646.996094 376.496094 647.25 C 376.636719 647.351562 376.710938 647.515625 376.695312 647.683594 C 376.683594 647.855469 376.582031 648 376.429688 648.074219 C 374.855469 648.863281 369.488281 651.628906 366.652344 654.144531 C 366.5625 654.226562 366.449219 654.273438 366.332031 654.277344 " fill-opacity="1" fill-rule="nonzero"/></svg>